<svg xmlns="http://www.w3.org/2000/svg" xmlns:xlink="http://www.w3.org/1999/xlink" xmlns:lucid="lucid" width="1475.95" height="949"><g transform="translate(-179.5 320.5)" lucid:page-tab-id="0_0"><path d="M0-500h2000v1500H0z" fill="#fff"/><path d="M560-15a5 5 0 0 1 5-5h430a5 5 0 0 1 5 5v158a5 5 0 0 1-5 5H565a5 5 0 0 1-5-5z" fill="#fff"/><path d="M560 20v-35a5 5 0 0 1 5-5h430a5 5 0 0 1 5 5v35" fill="#dedeff"/><path d="M560-15a5 5 0 0 1 5-5h430a5 5 0 0 1 5 5v158a5 5 0 0 1-5 5H565a5 5 0 0 1-5-5zM560 20h440M780 20v128" stroke="#282c33" fill="none"/><use xlink:href="#a" transform="matrix(1,0,0,1,570,-20) translate(0 23.6)"/><use xlink:href="#b" transform="matrix(1,0,0,1,570,-20) translate(133.70000000000002 23.6)"/><use xlink:href="#c" transform="matrix(1,0,0,1,565,22.5) translate(0 17.1)"/><use xlink:href="#d" transform="matrix(1,0,0,1,785,22.5) translate(0 17.1)"/><use xlink:href="#e" transform="matrix(1,0,0,1,565,54.5) translate(0 17.1)"/><use xlink:href="#f" transform="matrix(1,0,0,1,785,54.5) translate(0 17.1)"/><use xlink:href="#g" transform="matrix(1,0,0,1,565,86.5) translate(0 17.1)"/><use xlink:href="#f" transform="matrix(1,0,0,1,785,86.5) translate(0 17.1)"/><use xlink:href="#h" transform="matrix(1,0,0,1,565,118.5) translate(0 17.1)"/><use xlink:href="#i" transform="matrix(1,0,0,1,785,118.5) translate(0 17.1)"/><path d="M1100 160.8a5 5 0 0 1 5-5h470a5 5 0 0 1 5 5v190a5 5 0 0 1-5 5h-470a5 5 0 0 1-5-5z" fill="#fff"/><path d="M1100 195.8v-35a5 5 0 0 1 5-5h470a5 5 0 0 1 5 5v35" fill="#dedeff"/><path d="M1100 160.8a5 5 0 0 1 5-5h470a5 5 0 0 1 5 5v190a5 5 0 0 1-5 5h-470a5 5 0 0 1-5-5zM1100 195.8h480M1340 195.8v160" stroke="#282c33" fill="none"/><use xlink:href="#j" transform="matrix(1,0,0,1,1110,155.79025177359608) translate(0 23.6)"/><use xlink:href="#b" transform="matrix(1,0,0,1,1110,155.79025177359608) translate(93.40000000000002 23.6)"/><use xlink:href="#c" transform="matrix(1,0,0,1,1105,198.29025177359608) translate(0 17.1)"/><use xlink:href="#d" transform="matrix(1,0,0,1,1345,198.29025177359608) translate(0 17.1)"/><use xlink:href="#k" transform="matrix(1,0,0,1,1105,230.29025177359608) translate(0 17.1)"/><use xlink:href="#l" transform="matrix(1,0,0,1,1345,230.29025177359608) translate(0 17.1)"/><use xlink:href="#m" transform="matrix(1,0,0,1,1105,262.2902517735961) translate(0 17.1)"/><use xlink:href="#n" transform="matrix(1,0,0,1,1345,262.2902517735961) translate(0 17.1)"/><use xlink:href="#o" transform="matrix(1,0,0,1,1105,294.2902517735961) translate(0 17.1)"/><use xlink:href="#n" transform="matrix(1,0,0,1,1345,294.2902517735961) translate(0 17.1)"/><use xlink:href="#p" transform="matrix(1,0,0,1,1105,326.2902517735961) translate(0 17.1)"/><use xlink:href="#n" transform="matrix(1,0,0,1,1345,326.2902517735961) translate(0 17.1)"/><path d="M200-144a16 16 0 0 1 16-16h251.23a16 16 0 0 1 16 16V4a16 16 0 0 1-16 16H216a16 16 0 0 1-16-16z" stroke="#4c535d" fill="#fff"/><path d="M260.87-86.1c0 7.22-5.84 13.06-13.04 13.06-7.2 0-13.05-5.84-13.05-13.05 0-7.2 5.84-13.03 13.05-13.03 7.2 0 13.04 5.84 13.04 13.04z" stroke="#000" stroke-opacity=".25" fill="#dedeff"/><path d="M260.87-51.3c0 7.2-5.84 13.04-13.04 13.04-7.2 0-13.05-5.84-13.05-13.04 0-7.2 5.84-13.05 13.05-13.05 7.2 0 13.04 5.84 13.04 13.05z" stroke="#000" stroke-opacity=".25" fill="#b8f5ed"/><path d="M260.87-16.52c0 7.2-5.84 13.04-13.04 13.04-7.2 0-13.05-5.84-13.05-13.04 0-7.2 5.84-13.05 13.05-13.05 7.2 0 13.04 5.84 13.04 13.05z" stroke="#000" stroke-opacity=".25" fill="#e81313"/><use xlink:href="#q" transform="matrix(1,0,0,1,234.7826086956522,-133.91304347826087) translate(0 14.4)"/><use xlink:href="#r" transform="matrix(1,0,0,1,234.7826086956522,-133.91304347826087) translate(84.85000000000001 14.4)"/><use xlink:href="#s" transform="matrix(1,0,0,1,273.9130434782609,-99.1304347826087) translate(0 16.3)"/><use xlink:href="#t" transform="matrix(1,0,0,1,273.9130434782609,-99.1304347826087) translate(52.81111111111111 16.3)"/><use xlink:href="#u" transform="matrix(1,0,0,1,273.9130434782609,-64.34782608695653) translate(0 16.3)"/><use xlink:href="#t" transform="matrix(1,0,0,1,273.9130434782609,-64.34782608695653) translate(63.73888888888889 16.3)"/><use xlink:href="#v" transform="matrix(1,0,0,1,273.9130434782609,-29.565217391304373) translate(0 16.3)"/><use xlink:href="#t" transform="matrix(1,0,0,1,273.9130434782609,-29.565217391304373) translate(66.85000000000001 16.3)"/><path d="M940-295a5 5 0 0 1 5-5h662.95a5 5 0 0 1 5 5v190a5 5 0 0 1-5 5H945a5 5 0 0 1-5-5z" fill="#fff"/><path d="M940-260v-35a5 5 0 0 1 5-5h662.95a5 5 0 0 1 5 5v35" fill="#dfe3e8"/><path d="M940-295a5 5 0 0 1 5-5h662.95a5 5 0 0 1 5 5v190a5 5 0 0 1-5 5H945a5 5 0 0 1-5-5zM940-260h672.95M1078.28-260v160" stroke="#282c33" fill="none"/><use xlink:href="#w" transform="matrix(1,0,0,1,950,-300) translate(0 23.6)"/><use xlink:href="#b" transform="matrix(1,0,0,1,950,-300) translate(242.5 23.6)"/><use xlink:href="#c" transform="matrix(1,0,0,1,945,-257.5) translate(0 17.1)"/><use xlink:href="#d" transform="matrix(1,0,0,1,1083.2798345758615,-257.5) translate(0 17.1)"/><use xlink:href="#x" transform="matrix(1,0,0,1,945,-225.5) translate(0 17.1)"/><use xlink:href="#y" transform="matrix(1,0,0,1,1083.2798345758615,-225.5) translate(0 17.1)"/><use xlink:href="#z" transform="matrix(1,0,0,1,945,-193.5) translate(0 17.1)"/><use xlink:href="#y" transform="matrix(1,0,0,1,1083.2798345758615,-193.5) translate(0 17.1)"/><use xlink:href="#A" transform="matrix(1,0,0,1,945,-161.5) translate(0 17.1)"/><use xlink:href="#B" transform="matrix(1,0,0,1,1083.2798345758615,-161.5) translate(0 17.1)"/><use xlink:href="#C" transform="matrix(1,0,0,1,945,-129.5) translate(0 17.1)"/><use xlink:href="#D" transform="matrix(1,0,0,1,1083.2798345758615,-129.5) translate(0 17.1)"/><use xlink:href="#E" transform="matrix(1,0,0,1,1083.2798345758615,-129.5) translate(27.950000000000003 17.1)"/><path d="M1079.5 275.8H1062a12 12 0 0 1-12-12V47.93a12 12 0 0 0-12-12h-17.5" stroke="#3a414a" fill="none"/><path d="M1079.5 265.8v20M1099.5 275.8h-20" stroke="#3a414a" fill="#fff"/><path d="M1000.72 25.94l20 10-20 10" stroke="#3a414a" fill="#fff" fill-opacity="0"/><path d="M1000.72 35.94h20M1020.72 45.94v-20" stroke="#3a414a" fill="#fff"/><path d="M539.5 68h-8a12 12 0 0 1-12-12v-288a12 12 0 0 1 12-12h388" stroke="#3a414a" fill="none"/><path d="M539.5 58v20M559.5 68h-20M919.5-254v20M939.5-244h-20" stroke="#3a414a" fill="#fff"/><path d="M1079.5 211.8h-8a12 12 0 0 1-12-12V39.9a12 12 0 0 1 12-12h569.95a12 12 0 0 0 12-12V-104a12 12 0 0 0-12-12h-8" stroke="#3a414a" fill="none"/><path d="M1079.5 201.8v20M1099.5 211.8h-20" stroke="#3a414a" fill="#fff"/><path d="M1613.68-126l20 10-20 10" stroke="#3a414a" fill="#fff" fill-opacity="0"/><path d="M1613.68-116h20M1633.68-106v-20" stroke="#3a414a" fill="#fff"/><path d="M540 207a5 5 0 0 1 5-5h430a5 5 0 0 1 5 5v158a5 5 0 0 1-5 5H545a5 5 0 0 1-5-5z" fill="#fff"/><path d="M540 242v-35a5 5 0 0 1 5-5h430a5 5 0 0 1 5 5v35" fill="#dedeff"/><path d="M540 207a5 5 0 0 1 5-5h430a5 5 0 0 1 5 5v158a5 5 0 0 1-5 5H545a5 5 0 0 1-5-5zM540 242h440M760 242v128" stroke="#282c33" fill="none"/><use xlink:href="#F" transform="matrix(1,0,0,1,550,202) translate(0 23.6)"/><use xlink:href="#b" transform="matrix(1,0,0,1,550,202) translate(82.50000000000001 23.6)"/><use xlink:href="#c" transform="matrix(1,0,0,1,545,244.5) translate(0 17.1)"/><use xlink:href="#d" transform="matrix(1,0,0,1,765,244.5) translate(0 17.1)"/><use xlink:href="#G" transform="matrix(1,0,0,1,545,276.5) translate(0 17.1)"/><use xlink:href="#l" transform="matrix(1,0,0,1,765,276.5) translate(0 17.1)"/><use xlink:href="#H" transform="matrix(1,0,0,1,545,308.5) translate(0 17.1)"/><use xlink:href="#n" transform="matrix(1,0,0,1,765,308.5) translate(0 17.1)"/><use xlink:href="#h" transform="matrix(1,0,0,1,545,340.5) translate(0 17.1)"/><use xlink:href="#i" transform="matrix(1,0,0,1,765,340.5) translate(0 17.1)"/><path d="M1079.5 307.8H1052a12 12 0 0 1-12-12V270a12 12 0 0 0-12-12h-27.5" stroke="#3a414a" fill="none"/><path d="M1079.5 297.8v20M1099.5 307.8h-20" stroke="#3a414a" fill="#fff"/><path d="M980.72 248l20 10-20 10" stroke="#3a414a" fill="#fff" fill-opacity="0"/><path d="M980.72 258h20M1000.72 268v-20" stroke="#3a414a" fill="#fff"/><path d="M539.5 100.08h-28a12 12 0 0 0-12 12V246a12 12 0 0 0 12 12h8" stroke="#3a414a" fill="none"/><path d="M539.5 90.08v20M559.5 100.08h-20M519.5 248v20M539.5 258h-20" stroke="#3a414a" fill="#fff"/><path d="M540 429a5 5 0 0 1 5-5h430a5 5 0 0 1 5 5v158a5 5 0 0 1-5 5H545a5 5 0 0 1-5-5z" fill="#fff"/><path d="M540 464v-35a5 5 0 0 1 5-5h430a5 5 0 0 1 5 5v35" fill="#dedeff"/><path d="M540 429a5 5 0 0 1 5-5h430a5 5 0 0 1 5 5v158a5 5 0 0 1-5 5H545a5 5 0 0 1-5-5zM540 464h440M760 464v128" stroke="#282c33" fill="none"/><use xlink:href="#I" transform="matrix(1,0,0,1,550,424) translate(0 23.6)"/><use xlink:href="#b" transform="matrix(1,0,0,1,550,424) translate(93.40000000000002 23.6)"/><use xlink:href="#c" transform="matrix(1,0,0,1,545,466.5) translate(0 17.1)"/><use xlink:href="#d" transform="matrix(1,0,0,1,765,466.5) translate(0 17.1)"/><use xlink:href="#J" transform="matrix(1,0,0,1,545,498.5) translate(0 17.1)"/><use xlink:href="#y" transform="matrix(1,0,0,1,765,498.5) translate(0 17.1)"/><use xlink:href="#K" transform="matrix(1,0,0,1,545,530.5) translate(0 17.1)"/><use xlink:href="#l" transform="matrix(1,0,0,1,765,530.5) translate(0 17.1)"/><use xlink:href="#L" transform="matrix(1,0,0,1,545,562.5) translate(0 17.1)"/><use xlink:href="#l" transform="matrix(1,0,0,1,765,562.5) translate(0 17.1)"/><path d="M519.5 479.94h-8a12 12 0 0 1-12-12V334.08a12 12 0 0 1 12-12h8" stroke="#3a414a" fill="none"/><path d="M539.28 489.94l-20-10 20-10" stroke="#3a414a" fill="#fff" fill-opacity="0"/><path d="M539.28 479.94h-20M519.28 469.94v20M519.5 312.08v20M539.5 322.08h-20" stroke="#3a414a" fill="#fff"/><path d="M1100 445a5 5 0 0 1 5-5h470a5 5 0 0 1 5 5v158a5 5 0 0 1-5 5h-470a5 5 0 0 1-5-5z" fill="#fff"/><path d="M1100 480v-35a5 5 0 0 1 5-5h470a5 5 0 0 1 5 5v35" fill="#e81313"/><path d="M1100 445a5 5 0 0 1 5-5h470a5 5 0 0 1 5 5v158a5 5 0 0 1-5 5h-470a5 5 0 0 1-5-5zM1100 480h480M1340 480v128" stroke="#282c33" fill="none"/><use xlink:href="#M" transform="matrix(1,0,0,1,1110,440) translate(0 23.6)"/><use xlink:href="#N" transform="matrix(1,0,0,1,1110,440) translate(83.55000000000001 23.6)"/><use xlink:href="#c" transform="matrix(1,0,0,1,1105,482.5) translate(0 17.1)"/><use xlink:href="#d" transform="matrix(1,0,0,1,1345,482.5) translate(0 17.1)"/><use xlink:href="#O" transform="matrix(1,0,0,1,1105,514.5) translate(0 17.1)"/><g><use xlink:href="#l" transform="matrix(1,0,0,1,1345,514.5) translate(0 17.1)"/></g><g><use xlink:href="#P" transform="matrix(1,0,0,1,1105,546.5) translate(0 17.1)"/></g><g><use xlink:href="#l" transform="matrix(1,0,0,1,1345,546.5) translate(0 17.1)"/></g><g><use xlink:href="#Q" transform="matrix(1,0,0,1,1105,578.5) translate(0 17.1)"/></g><g><use xlink:href="#f" transform="matrix(1,0,0,1,1345,578.5) translate(0 17.1)"/></g><path d="M1600.5 339.96h8a12 12 0 0 1 12 12V484a12 12 0 0 1-12 12h-8.6" stroke="#3a414a" fill="none"/><path d="M1600.5 349.96v-20M1580.5 339.96h20" stroke="#3a414a" fill="#fff"/><path d="M1580.72 486l20 10-20 10" stroke="#3a414a" fill="#fff" fill-opacity="0"/><path d="M1580.72 496h20" stroke="#3a414a" fill="#fff"/><defs><path fill="#333" d="M127-220V0H93v-220H8v-28h204v28h-85" id="R"/><path fill="#333" d="M233-177c-1 41-23 64-60 70L243 0h-38l-65-103H63V0H30v-248c88 3 205-21 203 71zM63-129c60-2 137 13 137-47 0-61-80-42-137-45v92" id="S"/><path fill="#333" d="M205 0l-28-72H64L36 0H1l101-248h38L239 0h-34zm-38-99l-47-123c-12 45-31 82-46 123h93" id="T"/><path fill="#333" d="M190 0L58-211 59 0H30v-248h39L202-35l-2-213h31V0h-41" id="U"/><path fill="#333" d="M185-189c-5-48-123-54-124 2 14 75 158 14 163 119 3 78-121 87-175 55-17-10-28-26-33-46l33-7c5 56 141 63 141-1 0-78-155-14-162-118-5-82 145-84 179-34 5 7 8 16 11 25" id="V"/><path fill="#333" d="M212-179c-10-28-35-45-73-45-59 0-87 40-87 99 0 60 29 101 89 101 43 0 62-24 78-52l27 14C228-24 195 4 139 4 59 4 22-46 18-125c-6-104 99-153 187-111 19 9 31 26 39 46" id="W"/><path fill="#333" d="M33 0v-248h34V0H33" id="X"/><path fill="#333" d="M140-251c81 0 123 46 123 126C263-46 219 4 140 4 59 4 17-45 17-125s42-126 123-126zm0 227c63 0 89-41 89-101s-29-99-89-99c-61 0-89 39-89 99S79-25 140-24" id="Y"/><g id="a"><use transform="matrix(0.05,0,0,0.05,0,0)" xlink:href="#R"/><use transform="matrix(0.05,0,0,0.05,10.950000000000001,0)" xlink:href="#S"/><use transform="matrix(0.05,0,0,0.05,23.900000000000002,0)" xlink:href="#T"/><use transform="matrix(0.05,0,0,0.05,35.900000000000006,0)" xlink:href="#U"/><use transform="matrix(0.05,0,0,0.05,48.85000000000001,0)" xlink:href="#V"/><use transform="matrix(0.05,0,0,0.05,60.85,0)" xlink:href="#T"/><use transform="matrix(0.05,0,0,0.05,72.85000000000001,0)" xlink:href="#W"/><use transform="matrix(0.05,0,0,0.05,85.80000000000001,0)" xlink:href="#R"/><use transform="matrix(0.05,0,0,0.05,96.75000000000001,0)" xlink:href="#X"/><use transform="matrix(0.05,0,0,0.05,101.75000000000001,0)" xlink:href="#Y"/><use transform="matrix(0.05,0,0,0.05,115.75,0)" xlink:href="#U"/></g><path fill="#333" d="M30 0v-248h187v28H63v79h144v27H63v87h162V0H30" id="Z"/><path fill="#333" d="M117-194c89-4 53 116 60 194h-32v-121c0-31-8-49-39-48C34-167 62-67 57 0H25l-1-190h30c1 10-1 24 2 32 11-22 29-35 61-36" id="aa"/><path fill="#333" d="M59-47c-2 24 18 29 38 22v24C64 9 27 4 27-40v-127H5v-23h24l9-43h21v43h35v23H59v120" id="ab"/><path fill="#333" d="M24-231v-30h32v30H24zM24 0v-190h32V0H24" id="ac"/><path fill="#333" d="M179-190L93 31C79 59 56 82 12 73V49c39 6 53-20 64-50L1-190h34L92-34l54-156h33" id="ad"/><g id="b"><use transform="matrix(0.05,0,0,0.05,0,0)" xlink:href="#Z"/><use transform="matrix(0.05,0,0,0.05,12,0)" xlink:href="#aa"/><use transform="matrix(0.05,0,0,0.05,22,0)" xlink:href="#ab"/><use transform="matrix(0.05,0,0,0.05,27,0)" xlink:href="#ac"/><use transform="matrix(0.05,0,0,0.05,30.950000000000003,0)" xlink:href="#ab"/><use transform="matrix(0.05,0,0,0.05,35.95,0)" xlink:href="#ad"/></g><path fill="#333" d="M85-194c31 0 48 13 60 33l-1-100h32l1 261h-30c-2-10 0-23-3-31C134-8 116 4 85 4 32 4 16-35 15-94c0-66 23-100 70-100zm9 24c-40 0-46 34-46 75 0 40 6 74 45 74 42 0 51-32 51-76 0-42-9-74-50-73" id="ae"/><g id="c"><use transform="matrix(0.05,0,0,0.05,0,0)" xlink:href="#ac"/><use transform="matrix(0.05,0,0,0.05,3.95,0)" xlink:href="#ae"/></g><path fill="#333" d="M30-248c87 1 191-15 191 75 0 78-77 80-158 76V0H30v-248zm33 125c57 0 124 11 124-50 0-59-68-47-124-48v98" id="af"/><path fill="#333" d="M194 0L95-120 63-95V0H30v-248h33v124l119-124h40L117-140 236 0h-42" id="ag"/><g id="d"><use transform="matrix(0.05,0,0,0.05,0,0)" xlink:href="#af"/><use transform="matrix(0.05,0,0,0.05,12,0)" xlink:href="#ag"/></g><path fill="#333" d="M96-169c-40 0-48 33-48 73s9 75 48 75c24 0 41-14 43-38l32 2c-6 37-31 61-74 61-59 0-76-41-82-99-10-93 101-131 147-64 4 7 5 14 7 22l-32 3c-4-21-16-35-41-35" id="ah"/><path fill="#333" d="M141-36C126-15 110 5 73 4 37 3 15-17 15-53c-1-64 63-63 125-63 3-35-9-54-41-54-24 1-41 7-42 31l-33-3c5-37 33-52 76-52 45 0 72 20 72 64v82c-1 20 7 32 28 27v20c-31 9-61-2-59-35zM48-53c0 20 12 33 32 33 41-3 63-29 60-74-43 2-92-5-92 41" id="ai"/><path fill="#333" d="M100-194c63 0 86 42 84 106H49c0 40 14 67 53 68 26 1 43-12 49-29l28 8c-11 28-37 45-77 45C44 4 14-33 15-96c1-61 26-98 85-98zm52 81c6-60-76-77-97-28-3 7-6 17-6 28h103" id="aj"/><path fill="#333" d="M177-190C167-65 218 103 67 71c-23-6-38-20-44-43l32-5c15 47 100 32 89-28v-30C133-14 115 1 83 1 29 1 15-40 15-95c0-56 16-97 71-98 29-1 48 16 59 35 1-10 0-23 2-32h30zM94-22c36 0 50-32 50-73 0-42-14-75-50-75-39 0-46 34-46 75s6 73 46 73" id="ak"/><path fill="#333" d="M100-194c62-1 85 37 85 99 1 63-27 99-86 99S16-35 15-95c0-66 28-99 85-99zM99-20c44 1 53-31 53-75 0-43-8-75-51-75s-53 32-53 75 10 74 51 75" id="al"/><path fill="#333" d="M114-163C36-179 61-72 57 0H25l-1-190h30c1 12-1 29 2 39 6-27 23-49 58-41v29" id="am"/><g id="e"><use transform="matrix(0.05,0,0,0.05,0,0)" xlink:href="#ah"/><use transform="matrix(0.05,0,0,0.05,9,0)" xlink:href="#ai"/><use transform="matrix(0.05,0,0,0.05,19,0)" xlink:href="#ab"/><use transform="matrix(0.05,0,0,0.05,24,0)" xlink:href="#aj"/><use transform="matrix(0.05,0,0,0.05,34,0)" xlink:href="#ak"/><use transform="matrix(0.05,0,0,0.05,44,0)" xlink:href="#al"/><use transform="matrix(0.05,0,0,0.05,54,0)" xlink:href="#am"/><use transform="matrix(0.05,0,0,0.05,59.95,0)" xlink:href="#ad"/></g><path fill="#333" d="M63-220v92h138v28H63V0H30v-248h175v28H63" id="an"/><g id="f"><use transform="matrix(0.05,0,0,0.05,0,0)" xlink:href="#an"/><use transform="matrix(0.05,0,0,0.05,10.950000000000001,0)" xlink:href="#ag"/></g><path fill="#333" d="M115-194c55 1 70 41 70 98S169 2 115 4C84 4 66-9 55-30l1 105H24l-1-265h31l2 30c10-21 28-34 59-34zm-8 174c40 0 45-34 45-75s-6-73-45-74c-42 0-51 32-51 76 0 43 10 73 51 73" id="ao"/><g id="g"><use transform="matrix(0.05,0,0,0.05,0,0)" xlink:href="#am"/><use transform="matrix(0.05,0,0,0.05,5.95,0)" xlink:href="#aj"/><use transform="matrix(0.05,0,0,0.05,15.949999999999998,0)" xlink:href="#ah"/><use transform="matrix(0.05,0,0,0.05,24.95,0)" xlink:href="#aj"/><use transform="matrix(0.05,0,0,0.05,34.95,0)" xlink:href="#ac"/><use transform="matrix(0.05,0,0,0.05,38.900000000000006,0)" xlink:href="#ao"/><use transform="matrix(0.05,0,0,0.05,48.900000000000006,0)" xlink:href="#ab"/></g><g id="h"><use transform="matrix(0.05,0,0,0.05,0,0)" xlink:href="#ab"/><use transform="matrix(0.05,0,0,0.05,5,0)" xlink:href="#ad"/><use transform="matrix(0.05,0,0,0.05,14,0)" xlink:href="#ao"/><use transform="matrix(0.05,0,0,0.05,24,0)" xlink:href="#aj"/></g><path fill="#333" d="M240 0l2-218c-23 76-54 145-80 218h-23L58-218 59 0H30v-248h44l77 211c21-75 51-140 76-211h43V0h-30" id="ap"/><path fill="#333" d="M0 4l72-265h28L28 4H0" id="aq"/><path fill="#333" d="M195 0l-74-108L45 0H8l94-129-87-119h37l69 98 67-98h37l-84 118L233 0h-38" id="ar"/><g id="i"><use transform="matrix(0.05,0,0,0.05,0,0)" xlink:href="#X"/><use transform="matrix(0.05,0,0,0.05,5,0)" xlink:href="#U"/><use transform="matrix(0.05,0,0,0.05,17.950000000000003,0)" xlink:href="#W"/><use transform="matrix(0.05,0,0,0.05,30.900000000000006,0)" xlink:href="#Y"/><use transform="matrix(0.05,0,0,0.05,44.900000000000006,0)" xlink:href="#ap"/><use transform="matrix(0.05,0,0,0.05,59.85,0)" xlink:href="#Z"/><use transform="matrix(0.05,0,0,0.05,71.85000000000001,0)" xlink:href="#aq"/><use transform="matrix(0.05,0,0,0.05,76.85000000000001,0)" xlink:href="#Z"/><use transform="matrix(0.05,0,0,0.05,88.85000000000001,0)" xlink:href="#ar"/><use transform="matrix(0.05,0,0,0.05,100.85000000000001,0)" xlink:href="#af"/><use transform="matrix(0.05,0,0,0.05,112.85000000000001,0)" xlink:href="#Z"/><use transform="matrix(0.05,0,0,0.05,124.85000000000001,0)" xlink:href="#U"/><use transform="matrix(0.05,0,0,0.05,137.8,0)" xlink:href="#V"/><use transform="matrix(0.05,0,0,0.05,149.8,0)" xlink:href="#Z"/></g><path fill="#333" d="M232-93c-1 65-40 97-104 97C67 4 28-28 28-90v-158h33c8 89-33 224 67 224 102 0 64-133 71-224h33v155" id="as"/><g id="j"><use transform="matrix(0.05,0,0,0.05,0,0)" xlink:href="#T"/><use transform="matrix(0.05,0,0,0.05,12,0)" xlink:href="#W"/><use transform="matrix(0.05,0,0,0.05,24.950000000000003,0)" xlink:href="#W"/><use transform="matrix(0.05,0,0,0.05,37.900000000000006,0)" xlink:href="#Y"/><use transform="matrix(0.05,0,0,0.05,51.900000000000006,0)" xlink:href="#as"/><use transform="matrix(0.05,0,0,0.05,64.85000000000001,0)" xlink:href="#U"/><use transform="matrix(0.05,0,0,0.05,77.80000000000001,0)" xlink:href="#R"/></g><path fill="#333" d="M115-194c53 0 69 39 70 98 0 66-23 100-70 100C84 3 66-7 56-30L54 0H23l1-261h32v101c10-23 28-34 59-34zm-8 174c40 0 45-34 45-75 0-40-5-75-45-74-42 0-51 32-51 76 0 43 10 73 51 73" id="at"/><path fill="#333" d="M24 0v-261h32V0H24" id="au"/><g id="k"><use transform="matrix(0.05,0,0,0.05,0,0)" xlink:href="#at"/><use transform="matrix(0.05,0,0,0.05,10,0)" xlink:href="#ai"/><use transform="matrix(0.05,0,0,0.05,20,0)" xlink:href="#au"/><use transform="matrix(0.05,0,0,0.05,23.95,0)" xlink:href="#ai"/><use transform="matrix(0.05,0,0,0.05,33.95,0)" xlink:href="#aa"/><use transform="matrix(0.05,0,0,0.05,43.95,0)" xlink:href="#ah"/><use transform="matrix(0.05,0,0,0.05,52.95,0)" xlink:href="#aj"/></g><g id="l"><use transform="matrix(0.05,0,0,0.05,0,0)" xlink:href="#ac"/><use transform="matrix(0.05,0,0,0.05,3.95,0)" xlink:href="#aa"/><use transform="matrix(0.05,0,0,0.05,13.949999999999998,0)" xlink:href="#ab"/></g><path fill="#333" d="M135-143c-3-34-86-38-87 0 15 53 115 12 119 90S17 21 10-45l28-5c4 36 97 45 98 0-10-56-113-15-118-90-4-57 82-63 122-42 12 7 21 19 24 35" id="av"/><g id="m"><use transform="matrix(0.05,0,0,0.05,0,0)" xlink:href="#ab"/><use transform="matrix(0.05,0,0,0.05,5,0)" xlink:href="#am"/><use transform="matrix(0.05,0,0,0.05,10.95,0)" xlink:href="#ai"/><use transform="matrix(0.05,0,0,0.05,20.95,0)" xlink:href="#aa"/><use transform="matrix(0.05,0,0,0.05,30.950000000000003,0)" xlink:href="#av"/><use transform="matrix(0.05,0,0,0.05,39.95,0)" xlink:href="#ai"/><use transform="matrix(0.05,0,0,0.05,49.95,0)" xlink:href="#ah"/><use transform="matrix(0.05,0,0,0.05,58.95,0)" xlink:href="#ab"/><use transform="matrix(0.05,0,0,0.05,63.95,0)" xlink:href="#ac"/><use transform="matrix(0.05,0,0,0.05,67.9,0)" xlink:href="#al"/><use transform="matrix(0.05,0,0,0.05,77.9,0)" xlink:href="#aa"/><use transform="matrix(0.05,0,0,0.05,87.9,0)" xlink:href="#av"/></g><path fill="#333" d="M26 75v-336h71v23H56V52h41v23H26" id="aw"/><path fill="#333" d="M3 75V52h41v-290H3v-23h71V75H3" id="ax"/><g id="n"><use transform="matrix(0.05,0,0,0.05,0,0)" xlink:href="#an"/><use transform="matrix(0.05,0,0,0.05,10.950000000000001,0)" xlink:href="#ag"/><use transform="matrix(0.05,0,0,0.05,22.950000000000003,0)" xlink:href="#aw"/><use transform="matrix(0.05,0,0,0.05,27.950000000000003,0)" xlink:href="#ax"/></g><g id="o"><use transform="matrix(0.05,0,0,0.05,0,0)" xlink:href="#am"/><use transform="matrix(0.05,0,0,0.05,5.95,0)" xlink:href="#aj"/><use transform="matrix(0.05,0,0,0.05,15.949999999999998,0)" xlink:href="#ah"/><use transform="matrix(0.05,0,0,0.05,24.95,0)" xlink:href="#aj"/><use transform="matrix(0.05,0,0,0.05,34.95,0)" xlink:href="#ac"/><use transform="matrix(0.05,0,0,0.05,38.900000000000006,0)" xlink:href="#ao"/><use transform="matrix(0.05,0,0,0.05,48.900000000000006,0)" xlink:href="#ab"/><use transform="matrix(0.05,0,0,0.05,53.900000000000006,0)" xlink:href="#av"/></g><g id="p"><use transform="matrix(0.05,0,0,0.05,0,0)" xlink:href="#ae"/><use transform="matrix(0.05,0,0,0.05,10,0)" xlink:href="#aj"/><use transform="matrix(0.05,0,0,0.05,20,0)" xlink:href="#ao"/><use transform="matrix(0.05,0,0,0.05,30,0)" xlink:href="#al"/><use transform="matrix(0.05,0,0,0.05,40,0)" xlink:href="#av"/><use transform="matrix(0.05,0,0,0.05,49,0)" xlink:href="#ac"/><use transform="matrix(0.05,0,0,0.05,52.95,0)" xlink:href="#ab"/><use transform="matrix(0.05,0,0,0.05,57.95,0)" xlink:href="#av"/></g><path d="M24-248c120-7 223 5 221 122C244-46 201 0 124 0H24v-248zM76-40c74 7 117-18 117-86 0-67-45-88-117-82v168" id="ay"/><path d="M133-34C117-15 103 5 69 4 32 3 11-16 11-54c-1-60 55-63 116-61 1-26-3-47-28-47-18 1-26 9-28 27l-52-2c7-38 36-58 82-57s74 22 75 68l1 82c-1 14 12 18 25 15v27c-30 8-71 5-69-32zm-48 3c29 0 43-24 42-57-32 0-66-3-65 30 0 17 8 27 23 27" id="az"/><path d="M115-3C79 11 28 4 28-45v-112H4v-33h27l15-45h31v45h36v33H77v99c-1 23 16 31 38 25v30" id="aA"/><path d="M135-194c52 0 70 43 70 98 0 56-19 99-73 100-30 1-46-15-58-35L72 0H24l1-261h50v104c11-23 29-37 60-37zM114-30c31 0 40-27 40-66 0-37-7-63-39-63s-41 28-41 65c0 36 8 64 40 64" id="aB"/><path d="M137-138c1-29-70-34-71-4 15 46 118 7 119 86 1 83-164 76-172 9l43-7c4 19 20 25 44 25 33 8 57-30 24-41C81-84 22-81 20-136c-2-80 154-74 161-7" id="aC"/><path d="M185-48c-13 30-37 53-82 52C43 2 14-33 14-96s30-98 90-98c62 0 83 45 84 108H66c0 31 8 55 39 56 18 0 30-7 34-22zm-45-69c5-46-57-63-70-21-2 6-4 13-4 21h74" id="aD"/><g id="q"><use transform="matrix(0.05,0,0,0.05,0,0)" xlink:href="#ay"/><use transform="matrix(0.05,0,0,0.05,12.950000000000001,0)" xlink:href="#az"/><use transform="matrix(0.05,0,0,0.05,22.950000000000003,0)" xlink:href="#aA"/><use transform="matrix(0.05,0,0,0.05,28.900000000000002,0)" xlink:href="#az"/><use transform="matrix(0.05,0,0,0.05,38.900000000000006,0)" xlink:href="#aB"/><use transform="matrix(0.05,0,0,0.05,49.85000000000001,0)" xlink:href="#az"/><use transform="matrix(0.05,0,0,0.05,59.85,0)" xlink:href="#aC"/><use transform="matrix(0.05,0,0,0.05,69.85000000000001,0)" xlink:href="#aD"/></g><path d="M114-157C55-157 80-60 75 0H25v-261h50l-1 109c12-26 28-41 61-42 86-1 58 113 63 194h-50c-7-57 23-157-34-157" id="aE"/><path d="M135-194c53 0 70 44 70 98 0 56-19 98-73 100-31 1-45-17-59-34 3 33 2 69 2 105H25l-1-265h48c2 10 0 23 3 31 11-24 29-35 60-35zM114-30c33 0 39-31 40-66 0-38-9-64-40-64-56 0-55 130 0 130" id="aF"/><g id="r"><use transform="matrix(0.05,0,0,0.05,0,0)" xlink:href="#aC"/><use transform="matrix(0.05,0,0,0.05,10,0)" xlink:href="#aE"/><use transform="matrix(0.05,0,0,0.05,20.950000000000003,0)" xlink:href="#az"/><use transform="matrix(0.05,0,0,0.05,30.950000000000003,0)" xlink:href="#aF"/><use transform="matrix(0.05,0,0,0.05,41.900000000000006,0)" xlink:href="#aD"/><use transform="matrix(0.05,0,0,0.05,51.900000000000006,0)" xlink:href="#aC"/></g><path d="M30 0v-248h187v28H63v79h144v27H63v87h162V0H30" id="aG"/><path d="M141 0L90-78 38 0H4l68-98-65-92h35l48 74 47-74h35l-64 92 68 98h-35" id="aH"/><path d="M24-231v-30h32v30H24zM24 0v-190h32V0H24" id="aI"/><path d="M135-143c-3-34-86-38-87 0 15 53 115 12 119 90S17 21 10-45l28-5c4 36 97 45 98 0-10-56-113-15-118-90-4-57 82-63 122-42 12 7 21 19 24 35" id="aJ"/><path d="M59-47c-2 24 18 29 38 22v24C64 9 27 4 27-40v-127H5v-23h24l9-43h21v43h35v23H59v120" id="aK"/><path d="M117-194c89-4 53 116 60 194h-32v-121c0-31-8-49-39-48C34-167 62-67 57 0H25l-1-190h30c1 10-1 24 2 32 11-22 29-35 61-36" id="aL"/><path d="M177-190C167-65 218 103 67 71c-23-6-38-20-44-43l32-5c15 47 100 32 89-28v-30C133-14 115 1 83 1 29 1 15-40 15-95c0-56 16-97 71-98 29-1 48 16 59 35 1-10 0-23 2-32h30zM94-22c36 0 50-32 50-73 0-42-14-75-50-75-39 0-46 34-46 75s6 73 46 73" id="aM"/><g id="s"><use transform="matrix(0.03888888888888889,0,0,0.03888888888888889,0,0)" xlink:href="#aG"/><use transform="matrix(0.03888888888888889,0,0,0.03888888888888889,9.333333333333334,0)" xlink:href="#aH"/><use transform="matrix(0.03888888888888889,0,0,0.03888888888888889,16.333333333333336,0)" xlink:href="#aI"/><use transform="matrix(0.03888888888888889,0,0,0.03888888888888889,19.40555555555556,0)" xlink:href="#aJ"/><use transform="matrix(0.03888888888888889,0,0,0.03888888888888889,26.405555555555562,0)" xlink:href="#aK"/><use transform="matrix(0.03888888888888889,0,0,0.03888888888888889,30.294444444444448,0)" xlink:href="#aI"/><use transform="matrix(0.03888888888888889,0,0,0.03888888888888889,33.36666666666667,0)" xlink:href="#aL"/><use transform="matrix(0.03888888888888889,0,0,0.03888888888888889,41.144444444444446,0)" xlink:href="#aM"/></g><path d="M141-36C126-15 110 5 73 4 37 3 15-17 15-53c-1-64 63-63 125-63 3-35-9-54-41-54-24 1-41 7-42 31l-33-3c5-37 33-52 76-52 45 0 72 20 72 64v82c-1 20 7 32 28 27v20c-31 9-61-2-59-35zM48-53c0 20 12 33 32 33 41-3 63-29 60-74-43 2-92-5-92 41" id="aN"/><path d="M115-194c53 0 69 39 70 98 0 66-23 100-70 100C84 3 66-7 56-30L54 0H23l1-261h32v101c10-23 28-34 59-34zm-8 174c40 0 45-34 45-75 0-40-5-75-45-74-42 0-51 32-51 76 0 43 10 73 51 73" id="aO"/><path d="M24 0v-261h32V0H24" id="aP"/><path d="M100-194c63 0 86 42 84 106H49c0 40 14 67 53 68 26 1 43-12 49-29l28 8c-11 28-37 45-77 45C44 4 14-33 15-96c1-61 26-98 85-98zm52 81c6-60-76-77-97-28-3 7-6 17-6 28h103" id="aQ"/><g id="t"><use transform="matrix(0.03888888888888889,0,0,0.03888888888888889,0,0)" xlink:href="#aK"/><use transform="matrix(0.03888888888888889,0,0,0.03888888888888889,3.888888888888889,0)" xlink:href="#aN"/><use transform="matrix(0.03888888888888889,0,0,0.03888888888888889,11.666666666666666,0)" xlink:href="#aO"/><use transform="matrix(0.03888888888888889,0,0,0.03888888888888889,19.444444444444443,0)" xlink:href="#aP"/><use transform="matrix(0.03888888888888889,0,0,0.03888888888888889,22.516666666666666,0)" xlink:href="#aQ"/></g><path d="M30-248c87 1 191-15 191 75 0 78-77 80-158 76V0H30v-248zm33 125c57 0 124 11 124-50 0-59-68-47-124-48v98" id="aR"/><path d="M114-163C36-179 61-72 57 0H25l-1-190h30c1 12-1 29 2 39 6-27 23-49 58-41v29" id="aS"/><path d="M100-194c62-1 85 37 85 99 1 63-27 99-86 99S16-35 15-95c0-66 28-99 85-99zM99-20c44 1 53-31 53-75 0-43-8-75-51-75s-53 32-53 75 10 74 51 75" id="aT"/><path d="M115-194c55 1 70 41 70 98S169 2 115 4C84 4 66-9 55-30l1 105H24l-1-265h31l2 30c10-21 28-34 59-34zm-8 174c40 0 45-34 45-75s-6-73-45-74c-42 0-51 32-51 76 0 43 10 73 51 73" id="aU"/><path d="M85-194c31 0 48 13 60 33l-1-100h32l1 261h-30c-2-10 0-23-3-31C134-8 116 4 85 4 32 4 16-35 15-94c0-66 23-100 70-100zm9 24c-40 0-46 34-46 75 0 40 6 74 45 74 42 0 51-32 51-76 0-42-9-74-50-73" id="aV"/><g id="u"><use transform="matrix(0.03888888888888889,0,0,0.03888888888888889,0,0)" xlink:href="#aR"/><use transform="matrix(0.03888888888888889,0,0,0.03888888888888889,9.333333333333334,0)" xlink:href="#aS"/><use transform="matrix(0.03888888888888889,0,0,0.03888888888888889,13.961111111111112,0)" xlink:href="#aT"/><use transform="matrix(0.03888888888888889,0,0,0.03888888888888889,21.73888888888889,0)" xlink:href="#aU"/><use transform="matrix(0.03888888888888889,0,0,0.03888888888888889,29.516666666666666,0)" xlink:href="#aT"/><use transform="matrix(0.03888888888888889,0,0,0.03888888888888889,37.294444444444444,0)" xlink:href="#aJ"/><use transform="matrix(0.03888888888888889,0,0,0.03888888888888889,44.294444444444444,0)" xlink:href="#aQ"/><use transform="matrix(0.03888888888888889,0,0,0.03888888888888889,52.07222222222222,0)" xlink:href="#aV"/></g><path d="M80-196l47-18 7 23-49 13 32 44-20 13-27-46-27 45-21-12 33-44-49-13 8-23 47 19-2-53h23" id="aW"/><path d="M106-169C34-169 62-67 57 0H25v-261h32l-1 103c12-21 28-36 61-36 89 0 53 116 60 194h-32v-121c2-32-8-49-39-48" id="aX"/><g id="v"><use transform="matrix(0.03888888888888889,0,0,0.03888888888888889,0,0)" xlink:href="#aW"/><use transform="matrix(0.03888888888888889,0,0,0.03888888888888889,5.444444444444445,0)" xlink:href="#aR"/><use transform="matrix(0.03888888888888889,0,0,0.03888888888888889,14.777777777777779,0)" xlink:href="#aQ"/><use transform="matrix(0.03888888888888889,0,0,0.03888888888888889,22.555555555555557,0)" xlink:href="#aS"/><use transform="matrix(0.03888888888888889,0,0,0.03888888888888889,27.183333333333337,0)" xlink:href="#aX"/><use transform="matrix(0.03888888888888889,0,0,0.03888888888888889,34.961111111111116,0)" xlink:href="#aN"/><use transform="matrix(0.03888888888888889,0,0,0.03888888888888889,42.7388888888889,0)" xlink:href="#aU"/><use transform="matrix(0.03888888888888889,0,0,0.03888888888888889,50.51666666666667,0)" xlink:href="#aJ"/><use transform="matrix(0.03888888888888889,0,0,0.03888888888888889,57.51666666666668,0)" xlink:href="#aW"/></g><path fill="#333" d="M-5 72V49h209v23H-5" id="aY"/><path fill="#333" d="M143 4C61 4 22-44 18-125c-5-107 100-154 193-111 17 8 29 25 37 43l-32 9c-13-25-37-40-76-40-61 0-88 39-88 99 0 61 29 100 91 101 35 0 62-11 79-27v-45h-74v-28h105v86C228-13 192 4 143 4" id="aZ"/><path fill="#333" d="M137-103V0h-34v-103L8-248h37l75 118 75-118h37" id="ba"/><g id="w"><use transform="matrix(0.05,0,0,0.05,0,0)" xlink:href="#R"/><use transform="matrix(0.05,0,0,0.05,10.950000000000001,0)" xlink:href="#S"/><use transform="matrix(0.05,0,0,0.05,23.900000000000002,0)" xlink:href="#T"/><use transform="matrix(0.05,0,0,0.05,35.900000000000006,0)" xlink:href="#U"/><use transform="matrix(0.05,0,0,0.05,48.85000000000001,0)" xlink:href="#V"/><use transform="matrix(0.05,0,0,0.05,60.85,0)" xlink:href="#T"/><use transform="matrix(0.05,0,0,0.05,72.85000000000001,0)" xlink:href="#W"/><use transform="matrix(0.05,0,0,0.05,85.80000000000001,0)" xlink:href="#R"/><use transform="matrix(0.05,0,0,0.05,96.75000000000001,0)" xlink:href="#X"/><use transform="matrix(0.05,0,0,0.05,101.75000000000001,0)" xlink:href="#Y"/><use transform="matrix(0.05,0,0,0.05,115.75,0)" xlink:href="#U"/><use transform="matrix(0.05,0,0,0.05,128.70000000000002,0)" xlink:href="#aY"/><use transform="matrix(0.05,0,0,0.05,138.70000000000002,0)" xlink:href="#W"/><use transform="matrix(0.05,0,0,0.05,151.65,0)" xlink:href="#T"/><use transform="matrix(0.05,0,0,0.05,162.3,0)" xlink:href="#R"/><use transform="matrix(0.05,0,0,0.05,173.25,0)" xlink:href="#Z"/><use transform="matrix(0.05,0,0,0.05,185.25,0)" xlink:href="#aZ"/><use transform="matrix(0.05,0,0,0.05,199.25,0)" xlink:href="#Y"/><use transform="matrix(0.05,0,0,0.05,213.25,0)" xlink:href="#S"/><use transform="matrix(0.05,0,0,0.05,225.85000000000002,0)" xlink:href="#ba"/></g><path fill="#333" d="M210-169c-67 3-38 105-44 169h-31v-121c0-29-5-50-35-48C34-165 62-65 56 0H25l-1-190h30c1 10-1 24 2 32 10-44 99-50 107 0 11-21 27-35 58-36 85-2 47 119 55 194h-31v-121c0-29-5-49-35-48" id="bb"/><g id="x"><use transform="matrix(0.05,0,0,0.05,0,0)" xlink:href="#aa"/><use transform="matrix(0.05,0,0,0.05,10,0)" xlink:href="#ai"/><use transform="matrix(0.05,0,0,0.05,20,0)" xlink:href="#bb"/><use transform="matrix(0.05,0,0,0.05,34.95,0)" xlink:href="#aj"/></g><g id="y"><use transform="matrix(0.05,0,0,0.05,0,0)" xlink:href="#av"/><use transform="matrix(0.05,0,0,0.05,9,0)" xlink:href="#ab"/><use transform="matrix(0.05,0,0,0.05,14,0)" xlink:href="#am"/><use transform="matrix(0.05,0,0,0.05,19.95,0)" xlink:href="#ac"/><use transform="matrix(0.05,0,0,0.05,23.9,0)" xlink:href="#aa"/><use transform="matrix(0.05,0,0,0.05,33.9,0)" xlink:href="#ak"/></g><g id="z"><use transform="matrix(0.05,0,0,0.05,0,0)" xlink:href="#ah"/><use transform="matrix(0.05,0,0,0.05,9,0)" xlink:href="#al"/><use transform="matrix(0.05,0,0,0.05,19,0)" xlink:href="#au"/><use transform="matrix(0.05,0,0,0.05,22.95,0)" xlink:href="#al"/><use transform="matrix(0.05,0,0,0.05,32.95,0)" xlink:href="#am"/></g><g id="A"><use transform="matrix(0.05,0,0,0.05,0,0)" xlink:href="#ak"/><use transform="matrix(0.05,0,0,0.05,10,0)" xlink:href="#aj"/><use transform="matrix(0.05,0,0,0.05,20,0)" xlink:href="#aa"/><use transform="matrix(0.05,0,0,0.05,30,0)" xlink:href="#aj"/><use transform="matrix(0.05,0,0,0.05,40,0)" xlink:href="#am"/><use transform="matrix(0.05,0,0,0.05,45.95,0)" xlink:href="#ai"/><use transform="matrix(0.05,0,0,0.05,55.95,0)" xlink:href="#au"/></g><g id="B"><use transform="matrix(0.05,0,0,0.05,0,0)" xlink:href="#at"/><use transform="matrix(0.05,0,0,0.05,10,0)" xlink:href="#al"/><use transform="matrix(0.05,0,0,0.05,20,0)" xlink:href="#al"/><use transform="matrix(0.05,0,0,0.05,30,0)" xlink:href="#au"/><use transform="matrix(0.05,0,0,0.05,33.95,0)" xlink:href="#aj"/><use transform="matrix(0.05,0,0,0.05,43.95,0)" xlink:href="#ai"/><use transform="matrix(0.05,0,0,0.05,53.95,0)" xlink:href="#aa"/></g><path fill="#333" d="M206 0h-36l-40-164L89 0H53L-1-190h32L70-26l43-164h34l41 164 42-164h31" id="bc"/><g id="C"><use transform="matrix(0.05,0,0,0.05,0,0)" xlink:href="#al"/><use transform="matrix(0.05,0,0,0.05,10,0)" xlink:href="#bc"/><use transform="matrix(0.05,0,0,0.05,22.950000000000003,0)" xlink:href="#aa"/><use transform="matrix(0.05,0,0,0.05,32.95,0)" xlink:href="#aj"/><use transform="matrix(0.05,0,0,0.05,42.95,0)" xlink:href="#am"/></g><g id="D"><use transform="matrix(0.05,0,0,0.05,0,0)" xlink:href="#an"/><use transform="matrix(0.05,0,0,0.05,10.950000000000001,0)" xlink:href="#ag"/></g><path fill="#333" d="M87 75C49 33 22-17 22-94c0-76 28-126 65-167h31c-38 41-64 92-64 168S80 34 118 75H87" id="bd"/><path fill="#333" d="M30 0v-248h33v221h125V0H30" id="be"/><path fill="#333" d="M160-131c35 5 61 23 61 61C221 17 115-2 30 0v-248c76 3 177-17 177 60 0 33-19 50-47 57zm-97-11c50-1 110 9 110-42 0-47-63-36-110-37v79zm0 115c55-2 124 14 124-45 0-56-70-42-124-44v89" id="bf"/><path fill="#333" d="M33-261c38 41 65 92 65 168S71 34 33 75H2C39 34 66-17 66-93S39-220 2-261h31" id="bg"/><g id="E"><use transform="matrix(0.05,0,0,0.05,0,0)" xlink:href="#bd"/><use transform="matrix(0.05,0,0,0.05,5.95,0)" xlink:href="#U"/><use transform="matrix(0.05,0,0,0.05,18.900000000000002,0)" xlink:href="#as"/><use transform="matrix(0.05,0,0,0.05,31.85,0)" xlink:href="#be"/><use transform="matrix(0.05,0,0,0.05,41.85,0)" xlink:href="#be"/><use transform="matrix(0.05,0,0,0.05,51.85,0)" xlink:href="#T"/><use transform="matrix(0.05,0,0,0.05,63.85,0)" xlink:href="#bf"/><use transform="matrix(0.05,0,0,0.05,75.85,0)" xlink:href="#be"/><use transform="matrix(0.05,0,0,0.05,85.85,0)" xlink:href="#Z"/><use transform="matrix(0.05,0,0,0.05,97.85,0)" xlink:href="#bg"/></g><g id="F"><use transform="matrix(0.05,0,0,0.05,0,0)" xlink:href="#S"/><use transform="matrix(0.05,0,0,0.05,12.950000000000001,0)" xlink:href="#Z"/><use transform="matrix(0.05,0,0,0.05,24.950000000000003,0)" xlink:href="#W"/><use transform="matrix(0.05,0,0,0.05,37.900000000000006,0)" xlink:href="#Z"/><use transform="matrix(0.05,0,0,0.05,49.900000000000006,0)" xlink:href="#X"/><use transform="matrix(0.05,0,0,0.05,54.900000000000006,0)" xlink:href="#af"/><use transform="matrix(0.05,0,0,0.05,66.9,0)" xlink:href="#R"/></g><path fill="#333" d="M108 0H70L1-190h34L89-25l56-165h34" id="bh"/><g id="G"><use transform="matrix(0.05,0,0,0.05,0,0)" xlink:href="#al"/><use transform="matrix(0.05,0,0,0.05,10,0)" xlink:href="#bh"/><use transform="matrix(0.05,0,0,0.05,19,0)" xlink:href="#aj"/><use transform="matrix(0.05,0,0,0.05,29,0)" xlink:href="#am"/><use transform="matrix(0.05,0,0,0.05,34.95,0)" xlink:href="#ai"/><use transform="matrix(0.05,0,0,0.05,44.95,0)" xlink:href="#au"/><use transform="matrix(0.05,0,0,0.05,48.900000000000006,0)" xlink:href="#au"/><use transform="matrix(0.05,0,0,0.05,52.85,0)" xlink:href="#aY"/><use transform="matrix(0.05,0,0,0.05,62.85,0)" xlink:href="#ao"/><use transform="matrix(0.05,0,0,0.05,72.85000000000001,0)" xlink:href="#am"/><use transform="matrix(0.05,0,0,0.05,78.80000000000001,0)" xlink:href="#ac"/><use transform="matrix(0.05,0,0,0.05,82.75000000000001,0)" xlink:href="#ah"/><use transform="matrix(0.05,0,0,0.05,91.75000000000001,0)" xlink:href="#aj"/></g><path fill="#333" d="M84 4C-5 8 30-112 23-190h32v120c0 31 7 50 39 49 72-2 45-101 50-169h31l1 190h-30c-1-10 1-25-2-33-11 22-28 36-60 37" id="bi"/><g id="H"><use transform="matrix(0.05,0,0,0.05,0,0)" xlink:href="#ao"/><use transform="matrix(0.05,0,0,0.05,10,0)" xlink:href="#am"/><use transform="matrix(0.05,0,0,0.05,15.949999999999998,0)" xlink:href="#al"/><use transform="matrix(0.05,0,0,0.05,25.950000000000003,0)" xlink:href="#ae"/><use transform="matrix(0.05,0,0,0.05,35.95,0)" xlink:href="#bi"/><use transform="matrix(0.05,0,0,0.05,45.95,0)" xlink:href="#ah"/><use transform="matrix(0.05,0,0,0.05,54.95,0)" xlink:href="#ab"/><use transform="matrix(0.05,0,0,0.05,59.95,0)" xlink:href="#av"/></g><path fill="#333" d="M30-248c118-7 216 8 213 122C240-48 200 0 122 0H30v-248zM63-27c89 8 146-16 146-99s-60-101-146-95v194" id="bj"/><g id="I"><use transform="matrix(0.05,0,0,0.05,0,0)" xlink:href="#af"/><use transform="matrix(0.05,0,0,0.05,12,0)" xlink:href="#S"/><use transform="matrix(0.05,0,0,0.05,24.950000000000003,0)" xlink:href="#Y"/><use transform="matrix(0.05,0,0,0.05,38.95,0)" xlink:href="#bj"/><use transform="matrix(0.05,0,0,0.05,51.900000000000006,0)" xlink:href="#as"/><use transform="matrix(0.05,0,0,0.05,64.85000000000001,0)" xlink:href="#W"/><use transform="matrix(0.05,0,0,0.05,77.80000000000001,0)" xlink:href="#R"/></g><g id="J"><use transform="matrix(0.05,0,0,0.05,0,0)" xlink:href="#au"/><use transform="matrix(0.05,0,0,0.05,3.95,0)" xlink:href="#ai"/><use transform="matrix(0.05,0,0,0.05,13.949999999999998,0)" xlink:href="#at"/><use transform="matrix(0.05,0,0,0.05,23.95,0)" xlink:href="#aj"/><use transform="matrix(0.05,0,0,0.05,33.95,0)" xlink:href="#au"/></g><g id="K"><use transform="matrix(0.05,0,0,0.05,0,0)" xlink:href="#ao"/><use transform="matrix(0.05,0,0,0.05,10,0)" xlink:href="#am"/><use transform="matrix(0.05,0,0,0.05,15.949999999999998,0)" xlink:href="#ac"/><use transform="matrix(0.05,0,0,0.05,19.9,0)" xlink:href="#ah"/><use transform="matrix(0.05,0,0,0.05,28.899999999999995,0)" xlink:href="#aj"/></g><path fill="#333" d="M145-31C134-9 116 4 85 4 32 4 16-35 15-94c0-59 17-99 70-100 32-1 48 14 60 33 0-11-1-24 2-32h30l-1 268h-32zM93-21c41 0 51-33 51-76s-8-73-50-73c-40 0-46 35-46 75s5 74 45 74" id="bk"/><g id="L"><use transform="matrix(0.05,0,0,0.05,0,0)" xlink:href="#bk"/><use transform="matrix(0.05,0,0,0.05,10,0)" xlink:href="#bi"/><use transform="matrix(0.05,0,0,0.05,20,0)" xlink:href="#ai"/><use transform="matrix(0.05,0,0,0.05,30,0)" xlink:href="#aa"/><use transform="matrix(0.05,0,0,0.05,40,0)" xlink:href="#ab"/><use transform="matrix(0.05,0,0,0.05,45,0)" xlink:href="#ac"/><use transform="matrix(0.05,0,0,0.05,48.95,0)" xlink:href="#ab"/><use transform="matrix(0.05,0,0,0.05,53.95,0)" xlink:href="#ad"/></g><path fill="#fff" d="M30-248c118-7 216 8 213 122C240-48 200 0 122 0H30v-248zM63-27c89 8 146-16 146-99s-60-101-146-95v194" id="bl"/><path fill="#fff" d="M30 0v-248h187v28H63v79h144v27H63v87h162V0H30" id="bm"/><path fill="#fff" d="M30-248c87 1 191-15 191 75 0 78-77 80-158 76V0H30v-248zm33 125c57 0 124 11 124-50 0-59-68-47-124-48v98" id="bn"/><path fill="#fff" d="M140-251c81 0 123 46 123 126C263-46 219 4 140 4 59 4 17-45 17-125s42-126 123-126zm0 227c63 0 89-41 89-101s-29-99-89-99c-61 0-89 39-89 99S79-25 140-24" id="bo"/><path fill="#fff" d="M185-189c-5-48-123-54-124 2 14 75 158 14 163 119 3 78-121 87-175 55-17-10-28-26-33-46l33-7c5 56 141 63 141-1 0-78-155-14-162-118-5-82 145-84 179-34 5 7 8 16 11 25" id="bp"/><path fill="#fff" d="M33 0v-248h34V0H33" id="bq"/><path fill="#fff" d="M127-220V0H93v-220H8v-28h204v28h-85" id="br"/><g id="M"><use transform="matrix(0.05,0,0,0.05,0,0)" xlink:href="#bl"/><use transform="matrix(0.05,0,0,0.05,12.950000000000001,0)" xlink:href="#bm"/><use transform="matrix(0.05,0,0,0.05,24.950000000000003,0)" xlink:href="#bn"/><use transform="matrix(0.05,0,0,0.05,36.95,0)" xlink:href="#bo"/><use transform="matrix(0.05,0,0,0.05,50.95,0)" xlink:href="#bp"/><use transform="matrix(0.05,0,0,0.05,62.95,0)" xlink:href="#bq"/><use transform="matrix(0.05,0,0,0.05,67.95,0)" xlink:href="#br"/></g><path fill="#fff" d="M117-194c89-4 53 116 60 194h-32v-121c0-31-8-49-39-48C34-167 62-67 57 0H25l-1-190h30c1 10-1 24 2 32 11-22 29-35 61-36" id="bs"/><path fill="#fff" d="M59-47c-2 24 18 29 38 22v24C64 9 27 4 27-40v-127H5v-23h24l9-43h21v43h35v23H59v120" id="bt"/><path fill="#fff" d="M24-231v-30h32v30H24zM24 0v-190h32V0H24" id="bu"/><path fill="#fff" d="M179-190L93 31C79 59 56 82 12 73V49c39 6 53-20 64-50L1-190h34L92-34l54-156h33" id="bv"/><g id="N"><use transform="matrix(0.05,0,0,0.05,0,0)" xlink:href="#bm"/><use transform="matrix(0.05,0,0,0.05,12,0)" xlink:href="#bs"/><use transform="matrix(0.05,0,0,0.05,22,0)" xlink:href="#bt"/><use transform="matrix(0.05,0,0,0.05,27,0)" xlink:href="#bu"/><use transform="matrix(0.05,0,0,0.05,30.950000000000003,0)" xlink:href="#bt"/><use transform="matrix(0.05,0,0,0.05,35.95,0)" xlink:href="#bv"/></g><g id="O"><use transform="matrix(0.05,0,0,0.05,0,0)" xlink:href="#ai"/><use transform="matrix(0.05,0,0,0.05,10,0)" xlink:href="#bb"/><use transform="matrix(0.05,0,0,0.05,24.950000000000003,0)" xlink:href="#al"/><use transform="matrix(0.05,0,0,0.05,34.95,0)" xlink:href="#bi"/><use transform="matrix(0.05,0,0,0.05,44.95,0)" xlink:href="#aa"/><use transform="matrix(0.05,0,0,0.05,54.95,0)" xlink:href="#ab"/></g><g id="P"><use transform="matrix(0.05,0,0,0.05,0,0)" xlink:href="#ao"/><use transform="matrix(0.05,0,0,0.05,10,0)" xlink:href="#aj"/><use transform="matrix(0.05,0,0,0.05,20,0)" xlink:href="#am"/><use transform="matrix(0.05,0,0,0.05,25.950000000000003,0)" xlink:href="#ah"/><use transform="matrix(0.05,0,0,0.05,34.95,0)" xlink:href="#aj"/><use transform="matrix(0.05,0,0,0.05,44.95,0)" xlink:href="#aa"/><use transform="matrix(0.05,0,0,0.05,54.95,0)" xlink:href="#ab"/></g><path fill="#333" d="M106-169C34-169 62-67 57 0H25v-261h32l-1 103c12-21 28-36 61-36 89 0 53 116 60 194h-32v-121c2-32-8-49-39-48" id="bw"/><path fill="#333" d="M103-251c84 0 111 97 45 133-19 10-37 24-39 52H78c0-63 77-55 77-114 0-30-21-42-52-43-32 0-53 17-56 46l-32-2c7-45 34-72 88-72zM77 0v-35h34V0H77" id="bx"/><g id="Q"><use transform="matrix(0.05,0,0,0.05,0,0)" xlink:href="#am"/><use transform="matrix(0.05,0,0,0.05,5.95,0)" xlink:href="#aj"/><use transform="matrix(0.05,0,0,0.05,15.949999999999998,0)" xlink:href="#ah"/><use transform="matrix(0.05,0,0,0.05,24.95,0)" xlink:href="#bw"/><use transform="matrix(0.05,0,0,0.05,34.95,0)" xlink:href="#ai"/><use transform="matrix(0.05,0,0,0.05,44.95,0)" xlink:href="#am"/><use transform="matrix(0.05,0,0,0.05,50.900000000000006,0)" xlink:href="#ak"/><use transform="matrix(0.05,0,0,0.05,60.900000000000006,0)" xlink:href="#aj"/><use transform="matrix(0.05,0,0,0.05,70.9,0)" xlink:href="#bx"/></g></defs></g></svg>