<svg xmlns="http://www.w3.org/2000/svg" xmlns:xlink="http://www.w3.org/1999/xlink" xmlns:lucid="lucid" width="2261" height="926.5"><g transform="translate(-179.5 180.5)" lucid:page-tab-id="0_0"><path d="M0-500h2500v1500H0z" fill="#fff"/><path d="M540 45a5 5 0 0 1 5-5h430a5 5 0 0 1 5 5v190a5 5 0 0 1-5 5H545a5 5 0 0 1-5-5z" fill="#fff"/><path d="M540 80V45a5 5 0 0 1 5-5h430a5 5 0 0 1 5 5v35" fill="#dedeff"/><path d="M540 45a5 5 0 0 1 5-5h430a5 5 0 0 1 5 5v190a5 5 0 0 1-5 5H545a5 5 0 0 1-5-5zM540 80h440M760 80v160" stroke="#282c33" fill="none"/><use xlink:href="#a" transform="matrix(1,0,0,1,550,40) translate(0 23.6)"/><use xlink:href="#b" transform="matrix(1,0,0,1,550,40) translate(133.70000000000002 23.6)"/><use xlink:href="#c" transform="matrix(1,0,0,1,545,82.5) translate(0 17.1)"/><use xlink:href="#d" transform="matrix(1,0,0,1,765,82.5) translate(0 17.1)"/><use xlink:href="#e" transform="matrix(1,0,0,1,545,114.5) translate(0 17.1)"/><use xlink:href="#f" transform="matrix(1,0,0,1,765,114.5) translate(0 17.1)"/><use xlink:href="#g" transform="matrix(1,0,0,1,545,146.5) translate(0 17.1)"/><use xlink:href="#f" transform="matrix(1,0,0,1,765,146.5) translate(0 17.1)"/><use xlink:href="#h" transform="matrix(1,0,0,1,545,178.5) translate(0 17.1)"/><use xlink:href="#i" transform="matrix(1,0,0,1,765,178.5) translate(0 17.1)"/><use xlink:href="#j" transform="matrix(1,0,0,1,545,210.5) translate(0 17.1)"/><use xlink:href="#k" transform="matrix(1,0,0,1,765,210.5) translate(0 17.1)"/><path d="M1100 160.8a5 5 0 0 1 5-5h470a5 5 0 0 1 5 5v254a5 5 0 0 1-5 5h-470a5 5 0 0 1-5-5z" fill="#fff"/><path d="M1100 195.8v-35a5 5 0 0 1 5-5h470a5 5 0 0 1 5 5v35" fill="#dedeff"/><path d="M1100 160.8a5 5 0 0 1 5-5h470a5 5 0 0 1 5 5v254a5 5 0 0 1-5 5h-470a5 5 0 0 1-5-5zM1100 195.8h480M1340 195.8v224" stroke="#282c33" fill="none"/><use xlink:href="#l" transform="matrix(1,0,0,1,1110,155.79025177359608) translate(0 23.6)"/><use xlink:href="#b" transform="matrix(1,0,0,1,1110,155.79025177359608) translate(93.40000000000002 23.6)"/><use xlink:href="#c" transform="matrix(1,0,0,1,1105,198.29025177359608) translate(0 17.1)"/><use xlink:href="#d" transform="matrix(1,0,0,1,1345,198.29025177359608) translate(0 17.1)"/><use xlink:href="#m" transform="matrix(1,0,0,1,1105,230.29025177359608) translate(0 17.1)"/><use xlink:href="#n" transform="matrix(1,0,0,1,1345,230.29025177359608) translate(0 17.1)"/><use xlink:href="#o" transform="matrix(1,0,0,1,1105,262.2902517735961) translate(0 17.1)"/><use xlink:href="#p" transform="matrix(1,0,0,1,1345,262.2902517735961) translate(0 17.1)"/><use xlink:href="#q" transform="matrix(1,0,0,1,1105,294.2902517735961) translate(0 17.1)"/><use xlink:href="#p" transform="matrix(1,0,0,1,1345,294.2902517735961) translate(0 17.1)"/><use xlink:href="#r" transform="matrix(1,0,0,1,1105,326.2902517735961) translate(0 17.1)"/><use xlink:href="#s" transform="matrix(1,0,0,1,1345,326.2902517735961) translate(0 17.1)"/><use xlink:href="#t" transform="matrix(1,0,0,1,1105,358.2902517735961) translate(0 17.1)"/><use xlink:href="#s" transform="matrix(1,0,0,1,1345,358.2902517735961) translate(0 17.1)"/><use xlink:href="#j" transform="matrix(1,0,0,1,1105,390.2902517735961) translate(0 17.1)"/><use xlink:href="#k" transform="matrix(1,0,0,1,1345,390.2902517735961) translate(0 17.1)"/><path d="M200-144a16 16 0 0 1 16-16h251.23a16 16 0 0 1 16 16V4a16 16 0 0 1-16 16H216a16 16 0 0 1-16-16z" stroke="#4c535d" fill="#fff"/><path d="M260.87-86.1c0 7.22-5.84 13.06-13.04 13.06-7.2 0-13.05-5.84-13.05-13.05 0-7.2 5.84-13.03 13.05-13.03 7.2 0 13.04 5.84 13.04 13.04z" stroke="#000" stroke-opacity=".25" fill="#dedeff"/><path d="M260.87-51.3c0 7.2-5.84 13.04-13.04 13.04-7.2 0-13.05-5.84-13.05-13.04 0-7.2 5.84-13.05 13.05-13.05 7.2 0 13.04 5.84 13.04 13.05z" stroke="#000" stroke-opacity=".25" fill="#b8f5ed"/><path d="M260.87-16.52c0 7.2-5.84 13.04-13.04 13.04-7.2 0-13.05-5.84-13.05-13.04 0-7.2 5.84-13.05 13.05-13.05 7.2 0 13.04 5.84 13.04 13.05z" stroke="#000" stroke-opacity=".25" fill="#e81313"/><use xlink:href="#u" transform="matrix(1,0,0,1,234.7826086956522,-133.91304347826087) translate(0 14.4)"/><use xlink:href="#v" transform="matrix(1,0,0,1,234.7826086956522,-133.91304347826087) translate(84.85000000000001 14.4)"/><use xlink:href="#w" transform="matrix(1,0,0,1,273.9130434782609,-99.1304347826087) translate(0 16.3)"/><use xlink:href="#x" transform="matrix(1,0,0,1,273.9130434782609,-99.1304347826087) translate(52.81111111111111 16.3)"/><use xlink:href="#y" transform="matrix(1,0,0,1,273.9130434782609,-64.34782608695653) translate(0 16.3)"/><use xlink:href="#x" transform="matrix(1,0,0,1,273.9130434782609,-64.34782608695653) translate(63.73888888888889 16.3)"/><use xlink:href="#z" transform="matrix(1,0,0,1,273.9130434782609,-29.565217391304373) translate(0 16.3)"/><use xlink:href="#x" transform="matrix(1,0,0,1,273.9130434782609,-29.565217391304373) translate(66.85000000000001 16.3)"/><path d="M1047.05 525a5 5 0 0 1 5-5H1715a5 5 0 0 1 5 5v190a5 5 0 0 1-5 5h-662.95a5 5 0 0 1-5-5z" fill="#fff"/><path d="M1047.05 560v-35a5 5 0 0 1 5-5H1715a5 5 0 0 1 5 5v35" fill="#dfe3e8"/><path d="M1047.05 525a5 5 0 0 1 5-5H1715a5 5 0 0 1 5 5v190a5 5 0 0 1-5 5h-662.95a5 5 0 0 1-5-5zM1047.05 560H1720M1185.33 560v160" stroke="#282c33" fill="none"/><use xlink:href="#A" transform="matrix(1,0,0,1,1057.0457547963051,520) translate(0 23.6)"/><use xlink:href="#B" transform="matrix(1,0,0,1,1057.0457547963051,520) translate(202.55 23.6)"/><use xlink:href="#c" transform="matrix(1,0,0,1,1052.0457547963051,562.5) translate(0 17.1)"/><use xlink:href="#d" transform="matrix(1,0,0,1,1190.3255893721666,562.5) translate(0 17.1)"/><use xlink:href="#C" transform="matrix(1,0,0,1,1052.0457547963051,594.5) translate(0 17.1)"/><use xlink:href="#D" transform="matrix(1,0,0,1,1190.3255893721666,594.5) translate(0 17.1)"/><use xlink:href="#E" transform="matrix(1,0,0,1,1052.0457547963051,626.5) translate(0 17.1)"/><use xlink:href="#D" transform="matrix(1,0,0,1,1190.3255893721666,626.5) translate(0 17.1)"/><use xlink:href="#F" transform="matrix(1,0,0,1,1052.0457547963051,658.5) translate(0 17.1)"/><use xlink:href="#G" transform="matrix(1,0,0,1,1190.3255893721666,658.5) translate(0 17.1)"/><use xlink:href="#H" transform="matrix(1,0,0,1,1052.0457547963051,690.5) translate(0 17.1)"/><use xlink:href="#I" transform="matrix(1,0,0,1,1190.3255893721666,690.5) translate(0 17.1)"/><use xlink:href="#J" transform="matrix(1,0,0,1,1190.3255893721666,690.5) translate(27.950000000000003 17.1)"/><path d="M1079.5 275.8H1052a12 12 0 0 1-12-12V108a12 12 0 0 0-12-12h-27.5" stroke="#3a414a" fill="none"/><path d="M1079.5 265.8v20M1099.5 275.8h-20" stroke="#3a414a" fill="#fff"/><path d="M980.72 86l20 10-20 10" stroke="#3a414a" fill="#fff" fill-opacity="0"/><path d="M980.72 96h20M1000.72 106V86" stroke="#3a414a" fill="#fff"/><path d="M1600.5 211.8h8a12 12 0 0 0 12-12v-16.14a12 12 0 0 1 12-12h45.5a12 12 0 0 1 12 12V441.9a12 12 0 0 0 12 12h99.45a12 12 0 0 1 12 12V692a12 12 0 0 1-12 12h-60.95" stroke="#3a414a" fill="none"/><path d="M1600.5 221.8v-20M1580.5 211.8h20" stroke="#3a414a" fill="#fff"/><path d="M1720.72 694l20 10-20 10" stroke="#3a414a" fill="#fff" fill-opacity="0"/><path d="M1720.72 704h20M1740.72 714v-20" stroke="#3a414a" fill="#fff"/><path d="M540 281a5 5 0 0 1 5-5h430a5 5 0 0 1 5 5v158a5 5 0 0 1-5 5H545a5 5 0 0 1-5-5z" fill="#fff"/><path d="M540 316v-35a5 5 0 0 1 5-5h430a5 5 0 0 1 5 5v35" fill="#dedeff"/><path d="M540 281a5 5 0 0 1 5-5h430a5 5 0 0 1 5 5v158a5 5 0 0 1-5 5H545a5 5 0 0 1-5-5zM540 316h440M760 316v128" stroke="#282c33" fill="none"/><use xlink:href="#K" transform="matrix(1,0,0,1,550,276) translate(0 23.6)"/><use xlink:href="#b" transform="matrix(1,0,0,1,550,276) translate(82.50000000000001 23.6)"/><use xlink:href="#c" transform="matrix(1,0,0,1,545,318.5) translate(0 17.1)"/><use xlink:href="#d" transform="matrix(1,0,0,1,765,318.5) translate(0 17.1)"/><use xlink:href="#L" transform="matrix(1,0,0,1,545,350.5) translate(0 17.1)"/><use xlink:href="#n" transform="matrix(1,0,0,1,765,350.5) translate(0 17.1)"/><use xlink:href="#M" transform="matrix(1,0,0,1,545,382.5) translate(0 17.1)"/><use xlink:href="#p" transform="matrix(1,0,0,1,765,382.5) translate(0 17.1)"/><use xlink:href="#j" transform="matrix(1,0,0,1,545,414.5) translate(0 17.1)"/><use xlink:href="#k" transform="matrix(1,0,0,1,765,414.5) translate(0 17.1)"/><path d="M1079.5 307.8H1052a12 12 0 0 0-12 12v.2a12 12 0 0 1-12 12h-27.5" stroke="#3a414a" fill="none"/><path d="M1079.5 297.8v20M1099.5 307.8h-20" stroke="#3a414a" fill="#fff"/><path d="M980.72 322l20 10-20 10" stroke="#3a414a" fill="#fff" fill-opacity="0"/><path d="M980.72 332h20M1000.72 342v-20" stroke="#3a414a" fill="#fff"/><path d="M519.5 160h-8a12 12 0 0 0-12 12v148a12 12 0 0 0 12 12h8" stroke="#3a414a" fill="none"/><path d="M519.5 150v20M539.5 160h-20M519.5 322v20M539.5 332h-20" stroke="#3a414a" fill="#fff"/><path d="M540 485a5 5 0 0 1 5-5h430a5 5 0 0 1 5 5v158a5 5 0 0 1-5 5H545a5 5 0 0 1-5-5z" fill="#fff"/><path d="M540 520v-35a5 5 0 0 1 5-5h430a5 5 0 0 1 5 5v35" fill="#dedeff"/><path d="M540 485a5 5 0 0 1 5-5h430a5 5 0 0 1 5 5v158a5 5 0 0 1-5 5H545a5 5 0 0 1-5-5zM540 520h440M760 520v128" stroke="#282c33" fill="none"/><use xlink:href="#N" transform="matrix(1,0,0,1,550,480) translate(0 23.6)"/><use xlink:href="#b" transform="matrix(1,0,0,1,550,480) translate(93.40000000000002 23.6)"/><use xlink:href="#c" transform="matrix(1,0,0,1,545,522.5) translate(0 17.1)"/><use xlink:href="#d" transform="matrix(1,0,0,1,765,522.5) translate(0 17.1)"/><use xlink:href="#O" transform="matrix(1,0,0,1,545,554.5) translate(0 17.1)"/><use xlink:href="#D" transform="matrix(1,0,0,1,765,554.5) translate(0 17.1)"/><use xlink:href="#P" transform="matrix(1,0,0,1,545,586.5) translate(0 17.1)"/><use xlink:href="#n" transform="matrix(1,0,0,1,765,586.5) translate(0 17.1)"/><use xlink:href="#Q" transform="matrix(1,0,0,1,545,618.5) translate(0 17.1)"/><use xlink:href="#n" transform="matrix(1,0,0,1,765,618.5) translate(0 17.1)"/><path d="M519.5 535.94h-8a12 12 0 0 1-12-12V408a12 12 0 0 1 12-12h8" stroke="#3a414a" fill="none"/><path d="M539.28 545.94l-20-10 20-10" stroke="#3a414a" fill="#fff" fill-opacity="0"/><path d="M539.28 535.94h-20M519.28 525.94v20M519.5 386v20M539.5 396h-20" stroke="#3a414a" fill="#fff"/><path d="M1940 320.85a5 5 0 0 1 5-5h470a5 5 0 0 1 5 5v158a5 5 0 0 1-5 5h-470a5 5 0 0 1-5-5z" fill="#fff"/><path d="M1940 355.85v-35a5 5 0 0 1 5-5h470a5 5 0 0 1 5 5v35" fill="#e81313"/><path d="M1940 320.85a5 5 0 0 1 5-5h470a5 5 0 0 1 5 5v158a5 5 0 0 1-5 5h-470a5 5 0 0 1-5-5zM1940 355.85h480M2180 355.85v128" stroke="#282c33" fill="none"/><use xlink:href="#R" transform="matrix(1,0,0,1,1950,315.8485813454136) translate(0 23.6)"/><use xlink:href="#S" transform="matrix(1,0,0,1,1950,315.8485813454136) translate(83.55000000000001 23.6)"/><use xlink:href="#c" transform="matrix(1,0,0,1,1945,358.3485813454136) translate(0 17.1)"/><use xlink:href="#d" transform="matrix(1,0,0,1,2185,358.3485813454136) translate(0 17.1)"/><use xlink:href="#T" transform="matrix(1,0,0,1,1945,390.3485813454136) translate(0 17.1)"/><use xlink:href="#n" transform="matrix(1,0,0,1,2185,390.3485813454136) translate(0 17.1)"/><use xlink:href="#U" transform="matrix(1,0,0,1,1945,422.3485813454136) translate(0 17.1)"/><use xlink:href="#n" transform="matrix(1,0,0,1,2185,422.3485813454136) translate(0 17.1)"/><use xlink:href="#V" transform="matrix(1,0,0,1,1945,454.3485813454136) translate(0 17.1)"/><use xlink:href="#f" transform="matrix(1,0,0,1,2185,454.3485813454136) translate(0 17.1)"/><path d="M1600.5 371.8h319.6" stroke="#3a414a" fill="none"/><path d="M1600.5 381.8v-20M1580.5 371.8h20" stroke="#3a414a" fill="#fff"/><path d="M1939.28 381.8l-20-10 20-10" stroke="#3a414a" fill="#fff" fill-opacity="0"/><path d="M1939.28 371.8h-20" stroke="#3a414a" fill="#fff"/><path d="M1720 65a5 5 0 0 1 5-5h610a5 5 0 0 1 5 5v190a5 5 0 0 1-5 5h-610a5 5 0 0 1-5-5z" fill="#fff"/><path d="M1720 100V65a5 5 0 0 1 5-5h610a5 5 0 0 1 5 5v35" fill="#dedeff"/><path d="M1720 65a5 5 0 0 1 5-5h610a5 5 0 0 1 5 5v190a5 5 0 0 1-5 5h-610a5 5 0 0 1-5-5zM1720 100h620M2030 100v160" stroke="#282c33" fill="none"/><use xlink:href="#W" transform="matrix(1,0,0,1,1730,60) translate(0 23.6)"/><use xlink:href="#B" transform="matrix(1,0,0,1,1730,60) translate(54.900000000000006 23.6)"/><use xlink:href="#X" transform="matrix(1,0,0,1,1725,102.5) translate(0 17.1)"/><use xlink:href="#Y" transform="matrix(1,0,0,1,2035,102.5) translate(0 17.1)"/><use xlink:href="#Z" transform="matrix(1,0,0,1,1725,134.5) translate(0 17.1)"/><use xlink:href="#aa" transform="matrix(1,0,0,1,2035,134.5) translate(0 17.1)"/><use xlink:href="#ab" transform="matrix(1,0,0,1,1725,166.5) translate(0 17.1)"/><g><use xlink:href="#ac" transform="matrix(1,0,0,1,2035,166.5) translate(0 17.1)"/></g><g><use xlink:href="#ad" transform="matrix(1,0,0,1,1725,198.5) translate(0 17.1)"/></g><g><use xlink:href="#ae" transform="matrix(1,0,0,1,2035,198.5) translate(0 17.1)"/></g><g><use xlink:href="#af" transform="matrix(1,0,0,1,1725,230.5) translate(0 17.1)"/></g><g><use xlink:href="#k" transform="matrix(1,0,0,1,2035,230.5) translate(0 17.1)"/></g><path d="M1600.5 339.8h37.5a12 12 0 0 0 12-12V128a12 12 0 0 1 12-12h38.1" stroke="#3a414a" fill="none"/><path d="M1580.72 329.8l20 10-20 10" stroke="#3a414a" fill="#fff" fill-opacity="0"/><path d="M1580.72 339.8h20M1600.72 349.8v-20" stroke="#3a414a" fill="#fff"/><path d="M1719.28 126l-20-10 20-10" stroke="#3a414a" fill="#fff" fill-opacity="0"/><path d="M1719.28 116h-20" stroke="#3a414a" fill="#fff"/><defs><path fill="#333" d="M127-220V0H93v-220H8v-28h204v28h-85" id="ag"/><path fill="#333" d="M233-177c-1 41-23 64-60 70L243 0h-38l-65-103H63V0H30v-248c88 3 205-21 203 71zM63-129c60-2 137 13 137-47 0-61-80-42-137-45v92" id="ah"/><path fill="#333" d="M205 0l-28-72H64L36 0H1l101-248h38L239 0h-34zm-38-99l-47-123c-12 45-31 82-46 123h93" id="ai"/><path fill="#333" d="M190 0L58-211 59 0H30v-248h39L202-35l-2-213h31V0h-41" id="aj"/><path fill="#333" d="M185-189c-5-48-123-54-124 2 14 75 158 14 163 119 3 78-121 87-175 55-17-10-28-26-33-46l33-7c5 56 141 63 141-1 0-78-155-14-162-118-5-82 145-84 179-34 5 7 8 16 11 25" id="ak"/><path fill="#333" d="M212-179c-10-28-35-45-73-45-59 0-87 40-87 99 0 60 29 101 89 101 43 0 62-24 78-52l27 14C228-24 195 4 139 4 59 4 22-46 18-125c-6-104 99-153 187-111 19 9 31 26 39 46" id="al"/><path fill="#333" d="M33 0v-248h34V0H33" id="am"/><path fill="#333" d="M140-251c81 0 123 46 123 126C263-46 219 4 140 4 59 4 17-45 17-125s42-126 123-126zm0 227c63 0 89-41 89-101s-29-99-89-99c-61 0-89 39-89 99S79-25 140-24" id="an"/><g id="a"><use transform="matrix(0.05,0,0,0.05,0,0)" xlink:href="#ag"/><use transform="matrix(0.05,0,0,0.05,10.950000000000001,0)" xlink:href="#ah"/><use transform="matrix(0.05,0,0,0.05,23.900000000000002,0)" xlink:href="#ai"/><use transform="matrix(0.05,0,0,0.05,35.900000000000006,0)" xlink:href="#aj"/><use transform="matrix(0.05,0,0,0.05,48.85000000000001,0)" xlink:href="#ak"/><use transform="matrix(0.05,0,0,0.05,60.85,0)" xlink:href="#ai"/><use transform="matrix(0.05,0,0,0.05,72.85000000000001,0)" xlink:href="#al"/><use transform="matrix(0.05,0,0,0.05,85.80000000000001,0)" xlink:href="#ag"/><use transform="matrix(0.05,0,0,0.05,96.75000000000001,0)" xlink:href="#am"/><use transform="matrix(0.05,0,0,0.05,101.75000000000001,0)" xlink:href="#an"/><use transform="matrix(0.05,0,0,0.05,115.75,0)" xlink:href="#aj"/></g><path fill="#333" d="M30 0v-248h187v28H63v79h144v27H63v87h162V0H30" id="ao"/><path fill="#333" d="M117-194c89-4 53 116 60 194h-32v-121c0-31-8-49-39-48C34-167 62-67 57 0H25l-1-190h30c1 10-1 24 2 32 11-22 29-35 61-36" id="ap"/><path fill="#333" d="M59-47c-2 24 18 29 38 22v24C64 9 27 4 27-40v-127H5v-23h24l9-43h21v43h35v23H59v120" id="aq"/><path fill="#333" d="M24-231v-30h32v30H24zM24 0v-190h32V0H24" id="ar"/><path fill="#333" d="M179-190L93 31C79 59 56 82 12 73V49c39 6 53-20 64-50L1-190h34L92-34l54-156h33" id="as"/><g id="b"><use transform="matrix(0.05,0,0,0.05,0,0)" xlink:href="#ao"/><use transform="matrix(0.05,0,0,0.05,12,0)" xlink:href="#ap"/><use transform="matrix(0.05,0,0,0.05,22,0)" xlink:href="#aq"/><use transform="matrix(0.05,0,0,0.05,27,0)" xlink:href="#ar"/><use transform="matrix(0.05,0,0,0.05,30.950000000000003,0)" xlink:href="#aq"/><use transform="matrix(0.05,0,0,0.05,35.95,0)" xlink:href="#as"/></g><path fill="#333" d="M85-194c31 0 48 13 60 33l-1-100h32l1 261h-30c-2-10 0-23-3-31C134-8 116 4 85 4 32 4 16-35 15-94c0-66 23-100 70-100zm9 24c-40 0-46 34-46 75 0 40 6 74 45 74 42 0 51-32 51-76 0-42-9-74-50-73" id="at"/><g id="c"><use transform="matrix(0.05,0,0,0.05,0,0)" xlink:href="#ar"/><use transform="matrix(0.05,0,0,0.05,3.95,0)" xlink:href="#at"/></g><path fill="#333" d="M30-248c87 1 191-15 191 75 0 78-77 80-158 76V0H30v-248zm33 125c57 0 124 11 124-50 0-59-68-47-124-48v98" id="au"/><path fill="#333" d="M194 0L95-120 63-95V0H30v-248h33v124l119-124h40L117-140 236 0h-42" id="av"/><g id="d"><use transform="matrix(0.05,0,0,0.05,0,0)" xlink:href="#au"/><use transform="matrix(0.05,0,0,0.05,12,0)" xlink:href="#av"/></g><path fill="#333" d="M96-169c-40 0-48 33-48 73s9 75 48 75c24 0 41-14 43-38l32 2c-6 37-31 61-74 61-59 0-76-41-82-99-10-93 101-131 147-64 4 7 5 14 7 22l-32 3c-4-21-16-35-41-35" id="aw"/><path fill="#333" d="M141-36C126-15 110 5 73 4 37 3 15-17 15-53c-1-64 63-63 125-63 3-35-9-54-41-54-24 1-41 7-42 31l-33-3c5-37 33-52 76-52 45 0 72 20 72 64v82c-1 20 7 32 28 27v20c-31 9-61-2-59-35zM48-53c0 20 12 33 32 33 41-3 63-29 60-74-43 2-92-5-92 41" id="ax"/><path fill="#333" d="M100-194c63 0 86 42 84 106H49c0 40 14 67 53 68 26 1 43-12 49-29l28 8c-11 28-37 45-77 45C44 4 14-33 15-96c1-61 26-98 85-98zm52 81c6-60-76-77-97-28-3 7-6 17-6 28h103" id="ay"/><path fill="#333" d="M177-190C167-65 218 103 67 71c-23-6-38-20-44-43l32-5c15 47 100 32 89-28v-30C133-14 115 1 83 1 29 1 15-40 15-95c0-56 16-97 71-98 29-1 48 16 59 35 1-10 0-23 2-32h30zM94-22c36 0 50-32 50-73 0-42-14-75-50-75-39 0-46 34-46 75s6 73 46 73" id="az"/><path fill="#333" d="M100-194c62-1 85 37 85 99 1 63-27 99-86 99S16-35 15-95c0-66 28-99 85-99zM99-20c44 1 53-31 53-75 0-43-8-75-51-75s-53 32-53 75 10 74 51 75" id="aA"/><path fill="#333" d="M114-163C36-179 61-72 57 0H25l-1-190h30c1 12-1 29 2 39 6-27 23-49 58-41v29" id="aB"/><g id="e"><use transform="matrix(0.05,0,0,0.05,0,0)" xlink:href="#aw"/><use transform="matrix(0.05,0,0,0.05,9,0)" xlink:href="#ax"/><use transform="matrix(0.05,0,0,0.05,19,0)" xlink:href="#aq"/><use transform="matrix(0.05,0,0,0.05,24,0)" xlink:href="#ay"/><use transform="matrix(0.05,0,0,0.05,34,0)" xlink:href="#az"/><use transform="matrix(0.05,0,0,0.05,44,0)" xlink:href="#aA"/><use transform="matrix(0.05,0,0,0.05,54,0)" xlink:href="#aB"/><use transform="matrix(0.05,0,0,0.05,59.95,0)" xlink:href="#as"/></g><path fill="#333" d="M63-220v92h138v28H63V0H30v-248h175v28H63" id="aC"/><g id="f"><use transform="matrix(0.05,0,0,0.05,0,0)" xlink:href="#aC"/><use transform="matrix(0.05,0,0,0.05,10.950000000000001,0)" xlink:href="#av"/></g><path fill="#333" d="M115-194c55 1 70 41 70 98S169 2 115 4C84 4 66-9 55-30l1 105H24l-1-265h31l2 30c10-21 28-34 59-34zm-8 174c40 0 45-34 45-75s-6-73-45-74c-42 0-51 32-51 76 0 43 10 73 51 73" id="aD"/><g id="g"><use transform="matrix(0.05,0,0,0.05,0,0)" xlink:href="#aB"/><use transform="matrix(0.05,0,0,0.05,5.95,0)" xlink:href="#ay"/><use transform="matrix(0.05,0,0,0.05,15.949999999999998,0)" xlink:href="#aw"/><use transform="matrix(0.05,0,0,0.05,24.95,0)" xlink:href="#ay"/><use transform="matrix(0.05,0,0,0.05,34.95,0)" xlink:href="#ar"/><use transform="matrix(0.05,0,0,0.05,38.900000000000006,0)" xlink:href="#aD"/><use transform="matrix(0.05,0,0,0.05,48.900000000000006,0)" xlink:href="#aq"/></g><g id="h"><use transform="matrix(0.05,0,0,0.05,0,0)" xlink:href="#aq"/><use transform="matrix(0.05,0,0,0.05,5,0)" xlink:href="#as"/><use transform="matrix(0.05,0,0,0.05,14,0)" xlink:href="#aD"/><use transform="matrix(0.05,0,0,0.05,24,0)" xlink:href="#ay"/></g><path fill="#333" d="M240 0l2-218c-23 76-54 145-80 218h-23L58-218 59 0H30v-248h44l77 211c21-75 51-140 76-211h43V0h-30" id="aE"/><path fill="#333" d="M0 4l72-265h28L28 4H0" id="aF"/><path fill="#333" d="M195 0l-74-108L45 0H8l94-129-87-119h37l69 98 67-98h37l-84 118L233 0h-38" id="aG"/><g id="i"><use transform="matrix(0.05,0,0,0.05,0,0)" xlink:href="#am"/><use transform="matrix(0.05,0,0,0.05,5,0)" xlink:href="#aj"/><use transform="matrix(0.05,0,0,0.05,17.950000000000003,0)" xlink:href="#al"/><use transform="matrix(0.05,0,0,0.05,30.900000000000006,0)" xlink:href="#an"/><use transform="matrix(0.05,0,0,0.05,44.900000000000006,0)" xlink:href="#aE"/><use transform="matrix(0.05,0,0,0.05,59.85,0)" xlink:href="#ao"/><use transform="matrix(0.05,0,0,0.05,71.85000000000001,0)" xlink:href="#aF"/><use transform="matrix(0.05,0,0,0.05,76.85000000000001,0)" xlink:href="#ao"/><use transform="matrix(0.05,0,0,0.05,88.85000000000001,0)" xlink:href="#aG"/><use transform="matrix(0.05,0,0,0.05,100.85000000000001,0)" xlink:href="#au"/><use transform="matrix(0.05,0,0,0.05,112.85000000000001,0)" xlink:href="#ao"/><use transform="matrix(0.05,0,0,0.05,124.85000000000001,0)" xlink:href="#aj"/><use transform="matrix(0.05,0,0,0.05,137.8,0)" xlink:href="#ak"/><use transform="matrix(0.05,0,0,0.05,149.8,0)" xlink:href="#ao"/></g><path fill="#333" d="M-5 72V49h209v23H-5" id="aH"/><g id="j"><use transform="matrix(0.05,0,0,0.05,0,0)" xlink:href="#aw"/><use transform="matrix(0.05,0,0,0.05,9,0)" xlink:href="#aB"/><use transform="matrix(0.05,0,0,0.05,14.949999999999998,0)" xlink:href="#ay"/><use transform="matrix(0.05,0,0,0.05,24.95,0)" xlink:href="#ax"/><use transform="matrix(0.05,0,0,0.05,34.95,0)" xlink:href="#aq"/><use transform="matrix(0.05,0,0,0.05,39.95,0)" xlink:href="#ay"/><use transform="matrix(0.05,0,0,0.05,49.95,0)" xlink:href="#at"/><use transform="matrix(0.05,0,0,0.05,59.95,0)" xlink:href="#aH"/><use transform="matrix(0.05,0,0,0.05,69.95,0)" xlink:href="#ax"/><use transform="matrix(0.05,0,0,0.05,79.95,0)" xlink:href="#aq"/></g><path fill="#333" d="M210-169c-67 3-38 105-44 169h-31v-121c0-29-5-50-35-48C34-165 62-65 56 0H25l-1-190h30c1 10-1 24 2 32 10-44 99-50 107 0 11-21 27-35 58-36 85-2 47 119 55 194h-31v-121c0-29-5-49-35-48" id="aI"/><path fill="#333" d="M135-143c-3-34-86-38-87 0 15 53 115 12 119 90S17 21 10-45l28-5c4 36 97 45 98 0-10-56-113-15-118-90-4-57 82-63 122-42 12 7 21 19 24 35" id="aJ"/><g id="k"><use transform="matrix(0.05,0,0,0.05,0,0)" xlink:href="#aq"/><use transform="matrix(0.05,0,0,0.05,5,0)" xlink:href="#ar"/><use transform="matrix(0.05,0,0,0.05,8.95,0)" xlink:href="#aI"/><use transform="matrix(0.05,0,0,0.05,23.9,0)" xlink:href="#ay"/><use transform="matrix(0.05,0,0,0.05,33.9,0)" xlink:href="#aJ"/><use transform="matrix(0.05,0,0,0.05,42.9,0)" xlink:href="#aq"/><use transform="matrix(0.05,0,0,0.05,47.9,0)" xlink:href="#ax"/><use transform="matrix(0.05,0,0,0.05,57.900000000000006,0)" xlink:href="#aI"/><use transform="matrix(0.05,0,0,0.05,72.85,0)" xlink:href="#aD"/></g><path fill="#333" d="M232-93c-1 65-40 97-104 97C67 4 28-28 28-90v-158h33c8 89-33 224 67 224 102 0 64-133 71-224h33v155" id="aK"/><g id="l"><use transform="matrix(0.05,0,0,0.05,0,0)" xlink:href="#ai"/><use transform="matrix(0.05,0,0,0.05,12,0)" xlink:href="#al"/><use transform="matrix(0.05,0,0,0.05,24.950000000000003,0)" xlink:href="#al"/><use transform="matrix(0.05,0,0,0.05,37.900000000000006,0)" xlink:href="#an"/><use transform="matrix(0.05,0,0,0.05,51.900000000000006,0)" xlink:href="#aK"/><use transform="matrix(0.05,0,0,0.05,64.85000000000001,0)" xlink:href="#aj"/><use transform="matrix(0.05,0,0,0.05,77.80000000000001,0)" xlink:href="#ag"/></g><path fill="#333" d="M115-194c53 0 69 39 70 98 0 66-23 100-70 100C84 3 66-7 56-30L54 0H23l1-261h32v101c10-23 28-34 59-34zm-8 174c40 0 45-34 45-75 0-40-5-75-45-74-42 0-51 32-51 76 0 43 10 73 51 73" id="aL"/><path fill="#333" d="M24 0v-261h32V0H24" id="aM"/><g id="m"><use transform="matrix(0.05,0,0,0.05,0,0)" xlink:href="#aL"/><use transform="matrix(0.05,0,0,0.05,10,0)" xlink:href="#ax"/><use transform="matrix(0.05,0,0,0.05,20,0)" xlink:href="#aM"/><use transform="matrix(0.05,0,0,0.05,23.95,0)" xlink:href="#ax"/><use transform="matrix(0.05,0,0,0.05,33.95,0)" xlink:href="#ap"/><use transform="matrix(0.05,0,0,0.05,43.95,0)" xlink:href="#aw"/><use transform="matrix(0.05,0,0,0.05,52.95,0)" xlink:href="#ay"/></g><g id="n"><use transform="matrix(0.05,0,0,0.05,0,0)" xlink:href="#ar"/><use transform="matrix(0.05,0,0,0.05,3.95,0)" xlink:href="#ap"/><use transform="matrix(0.05,0,0,0.05,13.949999999999998,0)" xlink:href="#aq"/></g><g id="o"><use transform="matrix(0.05,0,0,0.05,0,0)" xlink:href="#aq"/><use transform="matrix(0.05,0,0,0.05,5,0)" xlink:href="#aB"/><use transform="matrix(0.05,0,0,0.05,10.95,0)" xlink:href="#ax"/><use transform="matrix(0.05,0,0,0.05,20.95,0)" xlink:href="#ap"/><use transform="matrix(0.05,0,0,0.05,30.950000000000003,0)" xlink:href="#aJ"/><use transform="matrix(0.05,0,0,0.05,39.95,0)" xlink:href="#ax"/><use transform="matrix(0.05,0,0,0.05,49.95,0)" xlink:href="#aw"/><use transform="matrix(0.05,0,0,0.05,58.95,0)" xlink:href="#aq"/><use transform="matrix(0.05,0,0,0.05,63.95,0)" xlink:href="#ar"/><use transform="matrix(0.05,0,0,0.05,67.9,0)" xlink:href="#aA"/><use transform="matrix(0.05,0,0,0.05,77.9,0)" xlink:href="#ap"/><use transform="matrix(0.05,0,0,0.05,87.9,0)" xlink:href="#aJ"/></g><path fill="#333" d="M26 75v-336h71v23H56V52h41v23H26" id="aN"/><path fill="#333" d="M3 75V52h41v-290H3v-23h71V75H3" id="aO"/><g id="p"><use transform="matrix(0.05,0,0,0.05,0,0)" xlink:href="#aC"/><use transform="matrix(0.05,0,0,0.05,10.950000000000001,0)" xlink:href="#av"/><use transform="matrix(0.05,0,0,0.05,22.950000000000003,0)" xlink:href="#aN"/><use transform="matrix(0.05,0,0,0.05,27.950000000000003,0)" xlink:href="#aO"/></g><g id="q"><use transform="matrix(0.05,0,0,0.05,0,0)" xlink:href="#aB"/><use transform="matrix(0.05,0,0,0.05,5.95,0)" xlink:href="#ay"/><use transform="matrix(0.05,0,0,0.05,15.949999999999998,0)" xlink:href="#aw"/><use transform="matrix(0.05,0,0,0.05,24.95,0)" xlink:href="#ay"/><use transform="matrix(0.05,0,0,0.05,34.95,0)" xlink:href="#ar"/><use transform="matrix(0.05,0,0,0.05,38.900000000000006,0)" xlink:href="#aD"/><use transform="matrix(0.05,0,0,0.05,48.900000000000006,0)" xlink:href="#aq"/><use transform="matrix(0.05,0,0,0.05,53.900000000000006,0)" xlink:href="#aJ"/></g><path fill="#333" d="M84 4C-5 8 30-112 23-190h32v120c0 31 7 50 39 49 72-2 45-101 50-169h31l1 190h-30c-1-10 1-25-2-33-11 22-28 36-60 37" id="aP"/><g id="r"><use transform="matrix(0.05,0,0,0.05,0,0)" xlink:href="#aw"/><use transform="matrix(0.05,0,0,0.05,9,0)" xlink:href="#aA"/><use transform="matrix(0.05,0,0,0.05,19,0)" xlink:href="#ap"/><use transform="matrix(0.05,0,0,0.05,29,0)" xlink:href="#aq"/><use transform="matrix(0.05,0,0,0.05,34,0)" xlink:href="#aB"/><use transform="matrix(0.05,0,0,0.05,39.95,0)" xlink:href="#ar"/><use transform="matrix(0.05,0,0,0.05,43.900000000000006,0)" xlink:href="#aL"/><use transform="matrix(0.05,0,0,0.05,53.900000000000006,0)" xlink:href="#aP"/><use transform="matrix(0.05,0,0,0.05,63.900000000000006,0)" xlink:href="#aq"/><use transform="matrix(0.05,0,0,0.05,68.9,0)" xlink:href="#aA"/><use transform="matrix(0.05,0,0,0.05,78.9,0)" xlink:href="#aB"/><use transform="matrix(0.05,0,0,0.05,84.85000000000001,0)" xlink:href="#aJ"/></g><g id="s"><use transform="matrix(0.05,0,0,0.05,0,0)" xlink:href="#aC"/><use transform="matrix(0.05,0,0,0.05,10.950000000000001,0)" xlink:href="#av"/><use transform="matrix(0.05,0,0,0.05,22.950000000000003,0)" xlink:href="#aN"/><use transform="matrix(0.05,0,0,0.05,27.950000000000003,0)" xlink:href="#aO"/></g><g id="t"><use transform="matrix(0.05,0,0,0.05,0,0)" xlink:href="#at"/><use transform="matrix(0.05,0,0,0.05,10,0)" xlink:href="#ay"/><use transform="matrix(0.05,0,0,0.05,20,0)" xlink:href="#aD"/><use transform="matrix(0.05,0,0,0.05,30,0)" xlink:href="#aA"/><use transform="matrix(0.05,0,0,0.05,40,0)" xlink:href="#aJ"/><use transform="matrix(0.05,0,0,0.05,49,0)" xlink:href="#ar"/><use transform="matrix(0.05,0,0,0.05,52.95,0)" xlink:href="#aq"/><use transform="matrix(0.05,0,0,0.05,57.95,0)" xlink:href="#aJ"/></g><path d="M24-248c120-7 223 5 221 122C244-46 201 0 124 0H24v-248zM76-40c74 7 117-18 117-86 0-67-45-88-117-82v168" id="aQ"/><path d="M133-34C117-15 103 5 69 4 32 3 11-16 11-54c-1-60 55-63 116-61 1-26-3-47-28-47-18 1-26 9-28 27l-52-2c7-38 36-58 82-57s74 22 75 68l1 82c-1 14 12 18 25 15v27c-30 8-71 5-69-32zm-48 3c29 0 43-24 42-57-32 0-66-3-65 30 0 17 8 27 23 27" id="aR"/><path d="M115-3C79 11 28 4 28-45v-112H4v-33h27l15-45h31v45h36v33H77v99c-1 23 16 31 38 25v30" id="aS"/><path d="M135-194c52 0 70 43 70 98 0 56-19 99-73 100-30 1-46-15-58-35L72 0H24l1-261h50v104c11-23 29-37 60-37zM114-30c31 0 40-27 40-66 0-37-7-63-39-63s-41 28-41 65c0 36 8 64 40 64" id="aT"/><path d="M137-138c1-29-70-34-71-4 15 46 118 7 119 86 1 83-164 76-172 9l43-7c4 19 20 25 44 25 33 8 57-30 24-41C81-84 22-81 20-136c-2-80 154-74 161-7" id="aU"/><path d="M185-48c-13 30-37 53-82 52C43 2 14-33 14-96s30-98 90-98c62 0 83 45 84 108H66c0 31 8 55 39 56 18 0 30-7 34-22zm-45-69c5-46-57-63-70-21-2 6-4 13-4 21h74" id="aV"/><g id="u"><use transform="matrix(0.05,0,0,0.05,0,0)" xlink:href="#aQ"/><use transform="matrix(0.05,0,0,0.05,12.950000000000001,0)" xlink:href="#aR"/><use transform="matrix(0.05,0,0,0.05,22.950000000000003,0)" xlink:href="#aS"/><use transform="matrix(0.05,0,0,0.05,28.900000000000002,0)" xlink:href="#aR"/><use transform="matrix(0.05,0,0,0.05,38.900000000000006,0)" xlink:href="#aT"/><use transform="matrix(0.05,0,0,0.05,49.85000000000001,0)" xlink:href="#aR"/><use transform="matrix(0.05,0,0,0.05,59.85,0)" xlink:href="#aU"/><use transform="matrix(0.05,0,0,0.05,69.85000000000001,0)" xlink:href="#aV"/></g><path d="M114-157C55-157 80-60 75 0H25v-261h50l-1 109c12-26 28-41 61-42 86-1 58 113 63 194h-50c-7-57 23-157-34-157" id="aW"/><path d="M135-194c53 0 70 44 70 98 0 56-19 98-73 100-31 1-45-17-59-34 3 33 2 69 2 105H25l-1-265h48c2 10 0 23 3 31 11-24 29-35 60-35zM114-30c33 0 39-31 40-66 0-38-9-64-40-64-56 0-55 130 0 130" id="aX"/><g id="v"><use transform="matrix(0.05,0,0,0.05,0,0)" xlink:href="#aU"/><use transform="matrix(0.05,0,0,0.05,10,0)" xlink:href="#aW"/><use transform="matrix(0.05,0,0,0.05,20.950000000000003,0)" xlink:href="#aR"/><use transform="matrix(0.05,0,0,0.05,30.950000000000003,0)" xlink:href="#aX"/><use transform="matrix(0.05,0,0,0.05,41.900000000000006,0)" xlink:href="#aV"/><use transform="matrix(0.05,0,0,0.05,51.900000000000006,0)" xlink:href="#aU"/></g><path d="M30 0v-248h187v28H63v79h144v27H63v87h162V0H30" id="aY"/><path d="M141 0L90-78 38 0H4l68-98-65-92h35l48 74 47-74h35l-64 92 68 98h-35" id="aZ"/><path d="M24-231v-30h32v30H24zM24 0v-190h32V0H24" id="ba"/><path d="M135-143c-3-34-86-38-87 0 15 53 115 12 119 90S17 21 10-45l28-5c4 36 97 45 98 0-10-56-113-15-118-90-4-57 82-63 122-42 12 7 21 19 24 35" id="bb"/><path d="M59-47c-2 24 18 29 38 22v24C64 9 27 4 27-40v-127H5v-23h24l9-43h21v43h35v23H59v120" id="bc"/><path d="M117-194c89-4 53 116 60 194h-32v-121c0-31-8-49-39-48C34-167 62-67 57 0H25l-1-190h30c1 10-1 24 2 32 11-22 29-35 61-36" id="bd"/><path d="M177-190C167-65 218 103 67 71c-23-6-38-20-44-43l32-5c15 47 100 32 89-28v-30C133-14 115 1 83 1 29 1 15-40 15-95c0-56 16-97 71-98 29-1 48 16 59 35 1-10 0-23 2-32h30zM94-22c36 0 50-32 50-73 0-42-14-75-50-75-39 0-46 34-46 75s6 73 46 73" id="be"/><g id="w"><use transform="matrix(0.03888888888888889,0,0,0.03888888888888889,0,0)" xlink:href="#aY"/><use transform="matrix(0.03888888888888889,0,0,0.03888888888888889,9.333333333333334,0)" xlink:href="#aZ"/><use transform="matrix(0.03888888888888889,0,0,0.03888888888888889,16.333333333333336,0)" xlink:href="#ba"/><use transform="matrix(0.03888888888888889,0,0,0.03888888888888889,19.40555555555556,0)" xlink:href="#bb"/><use transform="matrix(0.03888888888888889,0,0,0.03888888888888889,26.405555555555562,0)" xlink:href="#bc"/><use transform="matrix(0.03888888888888889,0,0,0.03888888888888889,30.294444444444448,0)" xlink:href="#ba"/><use transform="matrix(0.03888888888888889,0,0,0.03888888888888889,33.36666666666667,0)" xlink:href="#bd"/><use transform="matrix(0.03888888888888889,0,0,0.03888888888888889,41.144444444444446,0)" xlink:href="#be"/></g><path d="M141-36C126-15 110 5 73 4 37 3 15-17 15-53c-1-64 63-63 125-63 3-35-9-54-41-54-24 1-41 7-42 31l-33-3c5-37 33-52 76-52 45 0 72 20 72 64v82c-1 20 7 32 28 27v20c-31 9-61-2-59-35zM48-53c0 20 12 33 32 33 41-3 63-29 60-74-43 2-92-5-92 41" id="bf"/><path d="M115-194c53 0 69 39 70 98 0 66-23 100-70 100C84 3 66-7 56-30L54 0H23l1-261h32v101c10-23 28-34 59-34zm-8 174c40 0 45-34 45-75 0-40-5-75-45-74-42 0-51 32-51 76 0 43 10 73 51 73" id="bg"/><path d="M24 0v-261h32V0H24" id="bh"/><path d="M100-194c63 0 86 42 84 106H49c0 40 14 67 53 68 26 1 43-12 49-29l28 8c-11 28-37 45-77 45C44 4 14-33 15-96c1-61 26-98 85-98zm52 81c6-60-76-77-97-28-3 7-6 17-6 28h103" id="bi"/><g id="x"><use transform="matrix(0.03888888888888889,0,0,0.03888888888888889,0,0)" xlink:href="#bc"/><use transform="matrix(0.03888888888888889,0,0,0.03888888888888889,3.888888888888889,0)" xlink:href="#bf"/><use transform="matrix(0.03888888888888889,0,0,0.03888888888888889,11.666666666666666,0)" xlink:href="#bg"/><use transform="matrix(0.03888888888888889,0,0,0.03888888888888889,19.444444444444443,0)" xlink:href="#bh"/><use transform="matrix(0.03888888888888889,0,0,0.03888888888888889,22.516666666666666,0)" xlink:href="#bi"/></g><path d="M30-248c87 1 191-15 191 75 0 78-77 80-158 76V0H30v-248zm33 125c57 0 124 11 124-50 0-59-68-47-124-48v98" id="bj"/><path d="M114-163C36-179 61-72 57 0H25l-1-190h30c1 12-1 29 2 39 6-27 23-49 58-41v29" id="bk"/><path d="M100-194c62-1 85 37 85 99 1 63-27 99-86 99S16-35 15-95c0-66 28-99 85-99zM99-20c44 1 53-31 53-75 0-43-8-75-51-75s-53 32-53 75 10 74 51 75" id="bl"/><path d="M115-194c55 1 70 41 70 98S169 2 115 4C84 4 66-9 55-30l1 105H24l-1-265h31l2 30c10-21 28-34 59-34zm-8 174c40 0 45-34 45-75s-6-73-45-74c-42 0-51 32-51 76 0 43 10 73 51 73" id="bm"/><path d="M85-194c31 0 48 13 60 33l-1-100h32l1 261h-30c-2-10 0-23-3-31C134-8 116 4 85 4 32 4 16-35 15-94c0-66 23-100 70-100zm9 24c-40 0-46 34-46 75 0 40 6 74 45 74 42 0 51-32 51-76 0-42-9-74-50-73" id="bn"/><g id="y"><use transform="matrix(0.03888888888888889,0,0,0.03888888888888889,0,0)" xlink:href="#bj"/><use transform="matrix(0.03888888888888889,0,0,0.03888888888888889,9.333333333333334,0)" xlink:href="#bk"/><use transform="matrix(0.03888888888888889,0,0,0.03888888888888889,13.961111111111112,0)" xlink:href="#bl"/><use transform="matrix(0.03888888888888889,0,0,0.03888888888888889,21.73888888888889,0)" xlink:href="#bm"/><use transform="matrix(0.03888888888888889,0,0,0.03888888888888889,29.516666666666666,0)" xlink:href="#bl"/><use transform="matrix(0.03888888888888889,0,0,0.03888888888888889,37.294444444444444,0)" xlink:href="#bb"/><use transform="matrix(0.03888888888888889,0,0,0.03888888888888889,44.294444444444444,0)" xlink:href="#bi"/><use transform="matrix(0.03888888888888889,0,0,0.03888888888888889,52.07222222222222,0)" xlink:href="#bn"/></g><path d="M80-196l47-18 7 23-49 13 32 44-20 13-27-46-27 45-21-12 33-44-49-13 8-23 47 19-2-53h23" id="bo"/><path d="M106-169C34-169 62-67 57 0H25v-261h32l-1 103c12-21 28-36 61-36 89 0 53 116 60 194h-32v-121c2-32-8-49-39-48" id="bp"/><g id="z"><use transform="matrix(0.03888888888888889,0,0,0.03888888888888889,0,0)" xlink:href="#bo"/><use transform="matrix(0.03888888888888889,0,0,0.03888888888888889,5.444444444444445,0)" xlink:href="#bj"/><use transform="matrix(0.03888888888888889,0,0,0.03888888888888889,14.777777777777779,0)" xlink:href="#bi"/><use transform="matrix(0.03888888888888889,0,0,0.03888888888888889,22.555555555555557,0)" xlink:href="#bk"/><use transform="matrix(0.03888888888888889,0,0,0.03888888888888889,27.183333333333337,0)" xlink:href="#bp"/><use transform="matrix(0.03888888888888889,0,0,0.03888888888888889,34.961111111111116,0)" xlink:href="#bf"/><use transform="matrix(0.03888888888888889,0,0,0.03888888888888889,42.7388888888889,0)" xlink:href="#bm"/><use transform="matrix(0.03888888888888889,0,0,0.03888888888888889,50.51666666666667,0)" xlink:href="#bb"/><use transform="matrix(0.03888888888888889,0,0,0.03888888888888889,57.51666666666668,0)" xlink:href="#bo"/></g><path fill="#333" d="M30-248c118-7 216 8 213 122C240-48 200 0 122 0H30v-248zM63-27c89 8 146-16 146-99s-60-101-146-95v194" id="bq"/><path fill="#333" d="M143 4C61 4 22-44 18-125c-5-107 100-154 193-111 17 8 29 25 37 43l-32 9c-13-25-37-40-76-40-61 0-88 39-88 99 0 61 29 100 91 101 35 0 62-11 79-27v-45h-74v-28h105v86C228-13 192 4 143 4" id="br"/><path fill="#333" d="M137-103V0h-34v-103L8-248h37l75 118 75-118h37" id="bs"/><g id="A"><use transform="matrix(0.05,0,0,0.05,0,0)" xlink:href="#au"/><use transform="matrix(0.05,0,0,0.05,12,0)" xlink:href="#ah"/><use transform="matrix(0.05,0,0,0.05,24.950000000000003,0)" xlink:href="#an"/><use transform="matrix(0.05,0,0,0.05,38.95,0)" xlink:href="#bq"/><use transform="matrix(0.05,0,0,0.05,51.900000000000006,0)" xlink:href="#aK"/><use transform="matrix(0.05,0,0,0.05,64.85000000000001,0)" xlink:href="#al"/><use transform="matrix(0.05,0,0,0.05,77.80000000000001,0)" xlink:href="#ag"/><use transform="matrix(0.05,0,0,0.05,88.75000000000001,0)" xlink:href="#aH"/><use transform="matrix(0.05,0,0,0.05,98.75000000000001,0)" xlink:href="#al"/><use transform="matrix(0.05,0,0,0.05,111.7,0)" xlink:href="#ai"/><use transform="matrix(0.05,0,0,0.05,122.35000000000002,0)" xlink:href="#ag"/><use transform="matrix(0.05,0,0,0.05,133.3,0)" xlink:href="#ao"/><use transform="matrix(0.05,0,0,0.05,145.3,0)" xlink:href="#br"/><use transform="matrix(0.05,0,0,0.05,159.3,0)" xlink:href="#an"/><use transform="matrix(0.05,0,0,0.05,173.3,0)" xlink:href="#ah"/><use transform="matrix(0.05,0,0,0.05,185.9,0)" xlink:href="#bs"/></g><g id="B"><use transform="matrix(0.05,0,0,0.05,0,0)" xlink:href="#ao"/><use transform="matrix(0.05,0,0,0.05,12,0)" xlink:href="#ap"/><use transform="matrix(0.05,0,0,0.05,22,0)" xlink:href="#aq"/><use transform="matrix(0.05,0,0,0.05,27,0)" xlink:href="#ar"/><use transform="matrix(0.05,0,0,0.05,30.950000000000003,0)" xlink:href="#aq"/><use transform="matrix(0.05,0,0,0.05,35.95,0)" xlink:href="#as"/></g><g id="C"><use transform="matrix(0.05,0,0,0.05,0,0)" xlink:href="#ap"/><use transform="matrix(0.05,0,0,0.05,10,0)" xlink:href="#ax"/><use transform="matrix(0.05,0,0,0.05,20,0)" xlink:href="#aI"/><use transform="matrix(0.05,0,0,0.05,34.95,0)" xlink:href="#ay"/></g><g id="D"><use transform="matrix(0.05,0,0,0.05,0,0)" xlink:href="#aJ"/><use transform="matrix(0.05,0,0,0.05,9,0)" xlink:href="#aq"/><use transform="matrix(0.05,0,0,0.05,14,0)" xlink:href="#aB"/><use transform="matrix(0.05,0,0,0.05,19.95,0)" xlink:href="#ar"/><use transform="matrix(0.05,0,0,0.05,23.9,0)" xlink:href="#ap"/><use transform="matrix(0.05,0,0,0.05,33.9,0)" xlink:href="#az"/></g><g id="E"><use transform="matrix(0.05,0,0,0.05,0,0)" xlink:href="#aw"/><use transform="matrix(0.05,0,0,0.05,9,0)" xlink:href="#aA"/><use transform="matrix(0.05,0,0,0.05,19,0)" xlink:href="#aM"/><use transform="matrix(0.05,0,0,0.05,22.95,0)" xlink:href="#aA"/><use transform="matrix(0.05,0,0,0.05,32.95,0)" xlink:href="#aB"/></g><g id="F"><use transform="matrix(0.05,0,0,0.05,0,0)" xlink:href="#az"/><use transform="matrix(0.05,0,0,0.05,10,0)" xlink:href="#ay"/><use transform="matrix(0.05,0,0,0.05,20,0)" xlink:href="#ap"/><use transform="matrix(0.05,0,0,0.05,30,0)" xlink:href="#ay"/><use transform="matrix(0.05,0,0,0.05,40,0)" xlink:href="#aB"/><use transform="matrix(0.05,0,0,0.05,45.95,0)" xlink:href="#ax"/><use transform="matrix(0.05,0,0,0.05,55.95,0)" xlink:href="#aM"/></g><g id="G"><use transform="matrix(0.05,0,0,0.05,0,0)" xlink:href="#aL"/><use transform="matrix(0.05,0,0,0.05,10,0)" xlink:href="#aA"/><use transform="matrix(0.05,0,0,0.05,20,0)" xlink:href="#aA"/><use transform="matrix(0.05,0,0,0.05,30,0)" xlink:href="#aM"/><use transform="matrix(0.05,0,0,0.05,33.95,0)" xlink:href="#ay"/><use transform="matrix(0.05,0,0,0.05,43.95,0)" xlink:href="#ax"/><use transform="matrix(0.05,0,0,0.05,53.95,0)" xlink:href="#ap"/></g><path fill="#333" d="M206 0h-36l-40-164L89 0H53L-1-190h32L70-26l43-164h34l41 164 42-164h31" id="bt"/><g id="H"><use transform="matrix(0.05,0,0,0.05,0,0)" xlink:href="#aA"/><use transform="matrix(0.05,0,0,0.05,10,0)" xlink:href="#bt"/><use transform="matrix(0.05,0,0,0.05,22.950000000000003,0)" xlink:href="#ap"/><use transform="matrix(0.05,0,0,0.05,32.95,0)" xlink:href="#ay"/><use transform="matrix(0.05,0,0,0.05,42.95,0)" xlink:href="#aB"/></g><g id="I"><use transform="matrix(0.05,0,0,0.05,0,0)" xlink:href="#aC"/><use transform="matrix(0.05,0,0,0.05,10.950000000000001,0)" xlink:href="#av"/></g><path fill="#333" d="M87 75C49 33 22-17 22-94c0-76 28-126 65-167h31c-38 41-64 92-64 168S80 34 118 75H87" id="bu"/><path fill="#333" d="M30 0v-248h33v221h125V0H30" id="bv"/><path fill="#333" d="M160-131c35 5 61 23 61 61C221 17 115-2 30 0v-248c76 3 177-17 177 60 0 33-19 50-47 57zm-97-11c50-1 110 9 110-42 0-47-63-36-110-37v79zm0 115c55-2 124 14 124-45 0-56-70-42-124-44v89" id="bw"/><path fill="#333" d="M33-261c38 41 65 92 65 168S71 34 33 75H2C39 34 66-17 66-93S39-220 2-261h31" id="bx"/><g id="J"><use transform="matrix(0.05,0,0,0.05,0,0)" xlink:href="#bu"/><use transform="matrix(0.05,0,0,0.05,5.95,0)" xlink:href="#aj"/><use transform="matrix(0.05,0,0,0.05,18.900000000000002,0)" xlink:href="#aK"/><use transform="matrix(0.05,0,0,0.05,31.85,0)" xlink:href="#bv"/><use transform="matrix(0.05,0,0,0.05,41.85,0)" xlink:href="#bv"/><use transform="matrix(0.05,0,0,0.05,51.85,0)" xlink:href="#ai"/><use transform="matrix(0.05,0,0,0.05,63.85,0)" xlink:href="#bw"/><use transform="matrix(0.05,0,0,0.05,75.85,0)" xlink:href="#bv"/><use transform="matrix(0.05,0,0,0.05,85.85,0)" xlink:href="#ao"/><use transform="matrix(0.05,0,0,0.05,97.85,0)" xlink:href="#bx"/></g><g id="K"><use transform="matrix(0.05,0,0,0.05,0,0)" xlink:href="#ah"/><use transform="matrix(0.05,0,0,0.05,12.950000000000001,0)" xlink:href="#ao"/><use transform="matrix(0.05,0,0,0.05,24.950000000000003,0)" xlink:href="#al"/><use transform="matrix(0.05,0,0,0.05,37.900000000000006,0)" xlink:href="#ao"/><use transform="matrix(0.05,0,0,0.05,49.900000000000006,0)" xlink:href="#am"/><use transform="matrix(0.05,0,0,0.05,54.900000000000006,0)" xlink:href="#au"/><use transform="matrix(0.05,0,0,0.05,66.9,0)" xlink:href="#ag"/></g><path fill="#333" d="M108 0H70L1-190h34L89-25l56-165h34" id="by"/><g id="L"><use transform="matrix(0.05,0,0,0.05,0,0)" xlink:href="#aA"/><use transform="matrix(0.05,0,0,0.05,10,0)" xlink:href="#by"/><use transform="matrix(0.05,0,0,0.05,19,0)" xlink:href="#ay"/><use transform="matrix(0.05,0,0,0.05,29,0)" xlink:href="#aB"/><use transform="matrix(0.05,0,0,0.05,34.95,0)" xlink:href="#ax"/><use transform="matrix(0.05,0,0,0.05,44.95,0)" xlink:href="#aM"/><use transform="matrix(0.05,0,0,0.05,48.900000000000006,0)" xlink:href="#aM"/><use transform="matrix(0.05,0,0,0.05,52.85,0)" xlink:href="#aH"/><use transform="matrix(0.05,0,0,0.05,62.85,0)" xlink:href="#aD"/><use transform="matrix(0.05,0,0,0.05,72.85000000000001,0)" xlink:href="#aB"/><use transform="matrix(0.05,0,0,0.05,78.80000000000001,0)" xlink:href="#ar"/><use transform="matrix(0.05,0,0,0.05,82.75000000000001,0)" xlink:href="#aw"/><use transform="matrix(0.05,0,0,0.05,91.75000000000001,0)" xlink:href="#ay"/></g><g id="M"><use transform="matrix(0.05,0,0,0.05,0,0)" xlink:href="#aD"/><use transform="matrix(0.05,0,0,0.05,10,0)" xlink:href="#aB"/><use transform="matrix(0.05,0,0,0.05,15.949999999999998,0)" xlink:href="#aA"/><use transform="matrix(0.05,0,0,0.05,25.950000000000003,0)" xlink:href="#at"/><use transform="matrix(0.05,0,0,0.05,35.95,0)" xlink:href="#aP"/><use transform="matrix(0.05,0,0,0.05,45.95,0)" xlink:href="#aw"/><use transform="matrix(0.05,0,0,0.05,54.95,0)" xlink:href="#aq"/><use transform="matrix(0.05,0,0,0.05,59.95,0)" xlink:href="#aJ"/></g><g id="N"><use transform="matrix(0.05,0,0,0.05,0,0)" xlink:href="#au"/><use transform="matrix(0.05,0,0,0.05,12,0)" xlink:href="#ah"/><use transform="matrix(0.05,0,0,0.05,24.950000000000003,0)" xlink:href="#an"/><use transform="matrix(0.05,0,0,0.05,38.95,0)" xlink:href="#bq"/><use transform="matrix(0.05,0,0,0.05,51.900000000000006,0)" xlink:href="#aK"/><use transform="matrix(0.05,0,0,0.05,64.85000000000001,0)" xlink:href="#al"/><use transform="matrix(0.05,0,0,0.05,77.80000000000001,0)" xlink:href="#ag"/></g><g id="O"><use transform="matrix(0.05,0,0,0.05,0,0)" xlink:href="#aM"/><use transform="matrix(0.05,0,0,0.05,3.95,0)" xlink:href="#ax"/><use transform="matrix(0.05,0,0,0.05,13.949999999999998,0)" xlink:href="#aL"/><use transform="matrix(0.05,0,0,0.05,23.95,0)" xlink:href="#ay"/><use transform="matrix(0.05,0,0,0.05,33.95,0)" xlink:href="#aM"/></g><g id="P"><use transform="matrix(0.05,0,0,0.05,0,0)" xlink:href="#aD"/><use transform="matrix(0.05,0,0,0.05,10,0)" xlink:href="#aB"/><use transform="matrix(0.05,0,0,0.05,15.949999999999998,0)" xlink:href="#ar"/><use transform="matrix(0.05,0,0,0.05,19.9,0)" xlink:href="#aw"/><use transform="matrix(0.05,0,0,0.05,28.899999999999995,0)" xlink:href="#ay"/></g><path fill="#333" d="M145-31C134-9 116 4 85 4 32 4 16-35 15-94c0-59 17-99 70-100 32-1 48 14 60 33 0-11-1-24 2-32h30l-1 268h-32zM93-21c41 0 51-33 51-76s-8-73-50-73c-40 0-46 35-46 75s5 74 45 74" id="bz"/><g id="Q"><use transform="matrix(0.05,0,0,0.05,0,0)" xlink:href="#bz"/><use transform="matrix(0.05,0,0,0.05,10,0)" xlink:href="#aP"/><use transform="matrix(0.05,0,0,0.05,20,0)" xlink:href="#ax"/><use transform="matrix(0.05,0,0,0.05,30,0)" xlink:href="#ap"/><use transform="matrix(0.05,0,0,0.05,40,0)" xlink:href="#aq"/><use transform="matrix(0.05,0,0,0.05,45,0)" xlink:href="#ar"/><use transform="matrix(0.05,0,0,0.05,48.95,0)" xlink:href="#aq"/><use transform="matrix(0.05,0,0,0.05,53.95,0)" xlink:href="#as"/></g><path fill="#fff" d="M30-248c118-7 216 8 213 122C240-48 200 0 122 0H30v-248zM63-27c89 8 146-16 146-99s-60-101-146-95v194" id="bA"/><path fill="#fff" d="M30 0v-248h187v28H63v79h144v27H63v87h162V0H30" id="bB"/><path fill="#fff" d="M30-248c87 1 191-15 191 75 0 78-77 80-158 76V0H30v-248zm33 125c57 0 124 11 124-50 0-59-68-47-124-48v98" id="bC"/><path fill="#fff" d="M140-251c81 0 123 46 123 126C263-46 219 4 140 4 59 4 17-45 17-125s42-126 123-126zm0 227c63 0 89-41 89-101s-29-99-89-99c-61 0-89 39-89 99S79-25 140-24" id="bD"/><path fill="#fff" d="M185-189c-5-48-123-54-124 2 14 75 158 14 163 119 3 78-121 87-175 55-17-10-28-26-33-46l33-7c5 56 141 63 141-1 0-78-155-14-162-118-5-82 145-84 179-34 5 7 8 16 11 25" id="bE"/><path fill="#fff" d="M33 0v-248h34V0H33" id="bF"/><path fill="#fff" d="M127-220V0H93v-220H8v-28h204v28h-85" id="bG"/><g id="R"><use transform="matrix(0.05,0,0,0.05,0,0)" xlink:href="#bA"/><use transform="matrix(0.05,0,0,0.05,12.950000000000001,0)" xlink:href="#bB"/><use transform="matrix(0.05,0,0,0.05,24.950000000000003,0)" xlink:href="#bC"/><use transform="matrix(0.05,0,0,0.05,36.95,0)" xlink:href="#bD"/><use transform="matrix(0.05,0,0,0.05,50.95,0)" xlink:href="#bE"/><use transform="matrix(0.05,0,0,0.05,62.95,0)" xlink:href="#bF"/><use transform="matrix(0.05,0,0,0.05,67.95,0)" xlink:href="#bG"/></g><path fill="#fff" d="M117-194c89-4 53 116 60 194h-32v-121c0-31-8-49-39-48C34-167 62-67 57 0H25l-1-190h30c1 10-1 24 2 32 11-22 29-35 61-36" id="bH"/><path fill="#fff" d="M59-47c-2 24 18 29 38 22v24C64 9 27 4 27-40v-127H5v-23h24l9-43h21v43h35v23H59v120" id="bI"/><path fill="#fff" d="M24-231v-30h32v30H24zM24 0v-190h32V0H24" id="bJ"/><path fill="#fff" d="M179-190L93 31C79 59 56 82 12 73V49c39 6 53-20 64-50L1-190h34L92-34l54-156h33" id="bK"/><g id="S"><use transform="matrix(0.05,0,0,0.05,0,0)" xlink:href="#bB"/><use transform="matrix(0.05,0,0,0.05,12,0)" xlink:href="#bH"/><use transform="matrix(0.05,0,0,0.05,22,0)" xlink:href="#bI"/><use transform="matrix(0.05,0,0,0.05,27,0)" xlink:href="#bJ"/><use transform="matrix(0.05,0,0,0.05,30.950000000000003,0)" xlink:href="#bI"/><use transform="matrix(0.05,0,0,0.05,35.95,0)" xlink:href="#bK"/></g><g id="T"><use transform="matrix(0.05,0,0,0.05,0,0)" xlink:href="#ax"/><use transform="matrix(0.05,0,0,0.05,10,0)" xlink:href="#aI"/><use transform="matrix(0.05,0,0,0.05,24.950000000000003,0)" xlink:href="#aA"/><use transform="matrix(0.05,0,0,0.05,34.95,0)" xlink:href="#aP"/><use transform="matrix(0.05,0,0,0.05,44.95,0)" xlink:href="#ap"/><use transform="matrix(0.05,0,0,0.05,54.95,0)" xlink:href="#aq"/></g><g id="U"><use transform="matrix(0.05,0,0,0.05,0,0)" xlink:href="#aD"/><use transform="matrix(0.05,0,0,0.05,10,0)" xlink:href="#ay"/><use transform="matrix(0.05,0,0,0.05,20,0)" xlink:href="#aB"/><use transform="matrix(0.05,0,0,0.05,25.950000000000003,0)" xlink:href="#aw"/><use transform="matrix(0.05,0,0,0.05,34.95,0)" xlink:href="#ay"/><use transform="matrix(0.05,0,0,0.05,44.95,0)" xlink:href="#ap"/><use transform="matrix(0.05,0,0,0.05,54.95,0)" xlink:href="#aq"/></g><path fill="#333" d="M106-169C34-169 62-67 57 0H25v-261h32l-1 103c12-21 28-36 61-36 89 0 53 116 60 194h-32v-121c2-32-8-49-39-48" id="bL"/><path fill="#333" d="M103-251c84 0 111 97 45 133-19 10-37 24-39 52H78c0-63 77-55 77-114 0-30-21-42-52-43-32 0-53 17-56 46l-32-2c7-45 34-72 88-72zM77 0v-35h34V0H77" id="bM"/><g id="V"><use transform="matrix(0.05,0,0,0.05,0,0)" xlink:href="#aB"/><use transform="matrix(0.05,0,0,0.05,5.95,0)" xlink:href="#ay"/><use transform="matrix(0.05,0,0,0.05,15.949999999999998,0)" xlink:href="#aw"/><use transform="matrix(0.05,0,0,0.05,24.95,0)" xlink:href="#bL"/><use transform="matrix(0.05,0,0,0.05,34.95,0)" xlink:href="#ax"/><use transform="matrix(0.05,0,0,0.05,44.95,0)" xlink:href="#aB"/><use transform="matrix(0.05,0,0,0.05,50.900000000000006,0)" xlink:href="#az"/><use transform="matrix(0.05,0,0,0.05,60.900000000000006,0)" xlink:href="#ay"/><use transform="matrix(0.05,0,0,0.05,70.9,0)" xlink:href="#bM"/></g><g id="W"><use transform="matrix(0.05,0,0,0.05,0,0)" xlink:href="#aK"/><use transform="matrix(0.05,0,0,0.05,12.950000000000001,0)" xlink:href="#ak"/><use transform="matrix(0.05,0,0,0.05,24.950000000000003,0)" xlink:href="#ao"/><use transform="matrix(0.05,0,0,0.05,36.95,0)" xlink:href="#ah"/></g><g id="X"><use transform="matrix(0.05,0,0,0.05,0,0)" xlink:href="#ar"/><use transform="matrix(0.05,0,0,0.05,3.95,0)" xlink:href="#at"/></g><g id="Y"><use transform="matrix(0.05,0,0,0.05,0,0)" xlink:href="#au"/><use transform="matrix(0.05,0,0,0.05,12,0)" xlink:href="#av"/></g><g id="Z"><use transform="matrix(0.05,0,0,0.05,0,0)" xlink:href="#ay"/><use transform="matrix(0.05,0,0,0.05,10,0)" xlink:href="#aI"/><use transform="matrix(0.05,0,0,0.05,24.950000000000003,0)" xlink:href="#ax"/><use transform="matrix(0.05,0,0,0.05,34.95,0)" xlink:href="#ar"/><use transform="matrix(0.05,0,0,0.05,38.900000000000006,0)" xlink:href="#aM"/></g><path fill="#333" d="M140-251c81 0 123 46 123 126C263-53 228-8 163 1c7 30 30 48 69 40v23c-55 16-95-15-103-61C56-3 17-48 17-125c0-80 42-126 123-126zm0 227c63 0 89-41 89-101s-29-99-89-99c-61 0-89 39-89 99S79-25 140-24" id="bN"/><g id="aa"><use transform="matrix(0.05,0,0,0.05,0,0)" xlink:href="#aJ"/><use transform="matrix(0.05,0,0,0.05,9,0)" xlink:href="#aq"/><use transform="matrix(0.05,0,0,0.05,14,0)" xlink:href="#aB"/><use transform="matrix(0.05,0,0,0.05,19.95,0)" xlink:href="#ar"/><use transform="matrix(0.05,0,0,0.05,23.9,0)" xlink:href="#ap"/><use transform="matrix(0.05,0,0,0.05,33.9,0)" xlink:href="#az"/><use transform="matrix(0.05,0,0,0.05,43.9,0)" xlink:href="#bu"/><use transform="matrix(0.05,0,0,0.05,49.85,0)" xlink:href="#aK"/><use transform="matrix(0.05,0,0,0.05,62.800000000000004,0)" xlink:href="#aj"/><use transform="matrix(0.05,0,0,0.05,75.75,0)" xlink:href="#am"/><use transform="matrix(0.05,0,0,0.05,80.75,0)" xlink:href="#bN"/><use transform="matrix(0.05,0,0,0.05,94.75,0)" xlink:href="#aK"/><use transform="matrix(0.05,0,0,0.05,107.7,0)" xlink:href="#ao"/><use transform="matrix(0.05,0,0,0.05,119.7,0)" xlink:href="#bx"/></g><g id="ab"><use transform="matrix(0.05,0,0,0.05,0,0)" xlink:href="#at"/><use transform="matrix(0.05,0,0,0.05,10,0)" xlink:href="#ar"/><use transform="matrix(0.05,0,0,0.05,13.949999999999998,0)" xlink:href="#aJ"/><use transform="matrix(0.05,0,0,0.05,22.95,0)" xlink:href="#aD"/><use transform="matrix(0.05,0,0,0.05,32.95,0)" xlink:href="#aM"/><use transform="matrix(0.05,0,0,0.05,36.900000000000006,0)" xlink:href="#ax"/><use transform="matrix(0.05,0,0,0.05,46.900000000000006,0)" xlink:href="#as"/><use transform="matrix(0.05,0,0,0.05,55.900000000000006,0)" xlink:href="#aH"/><use transform="matrix(0.05,0,0,0.05,65.9,0)" xlink:href="#ap"/><use transform="matrix(0.05,0,0,0.05,75.9,0)" xlink:href="#ax"/><use transform="matrix(0.05,0,0,0.05,85.9,0)" xlink:href="#aI"/><use transform="matrix(0.05,0,0,0.05,100.85000000000001,0)" xlink:href="#ay"/></g><path fill="#333" d="M141 0L90-78 38 0H4l68-98-65-92h35l48 74 47-74h35l-64 92 68 98h-35" id="bO"/><g id="ac"><use transform="matrix(0.05,0,0,0.05,0,0)" xlink:href="#aq"/><use transform="matrix(0.05,0,0,0.05,5,0)" xlink:href="#ay"/><use transform="matrix(0.05,0,0,0.05,15,0)" xlink:href="#bO"/><use transform="matrix(0.05,0,0,0.05,24,0)" xlink:href="#aq"/></g><g id="ad"><use transform="matrix(0.05,0,0,0.05,0,0)" xlink:href="#aB"/><use transform="matrix(0.05,0,0,0.05,5.95,0)" xlink:href="#aA"/><use transform="matrix(0.05,0,0,0.05,15.949999999999998,0)" xlink:href="#aM"/><use transform="matrix(0.05,0,0,0.05,19.9,0)" xlink:href="#ay"/></g><path fill="#333" d="M266 0h-40l-56-210L115 0H75L2-248h35L96-30l15-64 43-154h32l59 218 59-218h35" id="bP"/><path fill="#333" d="M68-38c1 34 0 65-14 84H32c9-13 17-26 17-46H33v-38h35" id="bQ"/><g id="ae"><use transform="matrix(0.05,0,0,0.05,0,0)" xlink:href="#ay"/><use transform="matrix(0.05,0,0,0.05,10,0)" xlink:href="#ap"/><use transform="matrix(0.05,0,0,0.05,20,0)" xlink:href="#aP"/><use transform="matrix(0.05,0,0,0.05,30,0)" xlink:href="#aI"/><use transform="matrix(0.05,0,0,0.05,44.95,0)" xlink:href="#bu"/><use transform="matrix(0.05,0,0,0.05,50.900000000000006,0)" xlink:href="#an"/><use transform="matrix(0.05,0,0,0.05,64.9,0)" xlink:href="#bP"/><use transform="matrix(0.05,0,0,0.05,81.85000000000001,0)" xlink:href="#aj"/><use transform="matrix(0.05,0,0,0.05,94.80000000000001,0)" xlink:href="#ao"/><use transform="matrix(0.05,0,0,0.05,106.80000000000001,0)" xlink:href="#ah"/><use transform="matrix(0.05,0,0,0.05,119.75,0)" xlink:href="#bQ"/><use transform="matrix(0.05,0,0,0.05,124.75,0)" xlink:href="#al"/><use transform="matrix(0.05,0,0,0.05,137.70000000000002,0)" xlink:href="#an"/><use transform="matrix(0.05,0,0,0.05,151.70000000000002,0)" xlink:href="#aj"/><use transform="matrix(0.05,0,0,0.05,164.65,0)" xlink:href="#ag"/><use transform="matrix(0.05,0,0,0.05,175.6,0)" xlink:href="#ah"/><use transform="matrix(0.05,0,0,0.05,188.54999999999998,0)" xlink:href="#bw"/><use transform="matrix(0.05,0,0,0.05,200.54999999999998,0)" xlink:href="#aK"/><use transform="matrix(0.05,0,0,0.05,213.49999999999997,0)" xlink:href="#ag"/><use transform="matrix(0.05,0,0,0.05,224.09999999999997,0)" xlink:href="#an"/><use transform="matrix(0.05,0,0,0.05,238.09999999999997,0)" xlink:href="#ah"/><use transform="matrix(0.05,0,0,0.05,251.04999999999995,0)" xlink:href="#bx"/></g><path fill="#333" d="M24-231v-30h32v30H24zM-9 49c24 4 33-6 33-30v-209h32V24c2 40-23 58-65 49V49" id="bR"/><g id="af"><use transform="matrix(0.05,0,0,0.05,0,0)" xlink:href="#bR"/><use transform="matrix(0.05,0,0,0.05,3.95,0)" xlink:href="#aA"/><use transform="matrix(0.05,0,0,0.05,13.949999999999998,0)" xlink:href="#ar"/><use transform="matrix(0.05,0,0,0.05,17.9,0)" xlink:href="#ap"/><use transform="matrix(0.05,0,0,0.05,27.899999999999995,0)" xlink:href="#ay"/><use transform="matrix(0.05,0,0,0.05,37.9,0)" xlink:href="#at"/><use transform="matrix(0.05,0,0,0.05,47.9,0)" xlink:href="#aH"/><use transform="matrix(0.05,0,0,0.05,57.900000000000006,0)" xlink:href="#ax"/><use transform="matrix(0.05,0,0,0.05,67.9,0)" xlink:href="#aq"/></g></defs></g></svg>